<svg width="54" height="48" viewBox="0 0 54 48" fill="none" xmlns="http://www.w3.org/2000/svg">
<g clip-path="url(#clip0_430_4513)">
<path d="M50.3003 19.1476L46.956 16.3024L46.9158 4.76236C46.7326 4.01126 46.3774 3.53197 45.6108 3.33414C31.9618 3.17973 18.2099 3.09288 4.57205 3.37756C4.02403 3.60273 3.63511 3.93084 3.4503 4.50663V29.4443C3.75886 30.3804 4.4483 30.6506 5.37721 30.7326L29.7938 30.7165C30.5411 32.8637 31.9103 34.6184 33.5865 36.1174L35.0345 37.1612H29.9722L29.7311 37.4025V39.9759L29.9722 40.2171H33.6685C34.0044 40.2171 35.5167 41.1484 35.8204 41.4411C36.9518 42.5284 38.3644 45.9509 35.9281 46.1793L13.9398 46.1246C12.1527 45.3542 13.3484 42.5139 14.3834 41.5054C14.6903 41.2063 16.2894 40.2171 16.6317 40.2171H20.328L20.5337 39.9759C20.5385 39.9099 20.4084 39.8552 20.4084 39.815V37.1612H4.25706C2.35265 37.1612 -0.0338833 34.3337 -0.000134339 32.415V4.59349C0.314856 2.23884 2.04409 0.369924 4.40973 0L45.8792 0.00965018C47.7949 0.017692 50.3003 2.60716 50.3003 4.43104V19.1476Z" fill="#00DB05"/>
<path d="M40.7915 15.9711C49.0697 15.7604 54.4888 24.6064 50.6494 31.9631C50.0371 33.1356 49.187 33.9381 48.3979 34.961L53.9633 45.1629C54.3956 47.1331 50.8134 48.9474 49.5839 47.45L44.0346 37.3961C43.6763 37.1709 42.8325 37.6084 42.344 37.6438C26.8178 38.7294 26.5414 16.3346 40.7915 15.9711ZM48.4799 26.8404C48.4799 22.7536 45.1692 19.4403 41.0856 19.4403C37.002 19.4403 33.6914 22.7536 33.6914 26.8404C33.6914 30.9273 37.002 34.2405 41.0856 34.2405C45.1692 34.2405 48.4799 30.9273 48.4799 26.8404Z" fill="#00DB05"/>
<path d="M26.035 22.3643L26.4706 21.2738C27.6052 18.4286 27.9603 13.7981 29.2396 11.1797C29.7008 10.2356 30.6185 10.1246 31.2067 10.9948C32.3348 12.6626 32.9375 15.3647 34.0239 17.1403L32.3814 18.6634C32.1886 18.6634 31.0315 15.6349 30.7326 15.1749C30.6313 15.0189 30.7502 14.887 30.3742 14.9674C29.2283 18.7632 28.481 22.9385 27.2002 26.6715C26.7647 27.9437 26.4014 28.7752 25.0177 27.6333L22.0141 14.0024C21.7441 14.0474 21.7264 14.316 21.6493 14.5203C20.4198 17.774 19.9088 21.774 18.7211 25.1001C18.4286 25.959 17.2298 26.1456 16.746 25.3076L14.1377 16.5774C13.9175 16.5291 13.9641 16.7447 13.9015 16.8975C13.5559 17.7322 12.7652 21.0084 12.1738 21.2819C11.7576 21.4749 7.32684 21.4926 6.67757 21.3912C5.49475 21.2063 5.49314 19.5866 6.54097 19.3454C7.39594 19.1476 10.3385 19.5271 10.7724 19.2376C11.8042 16.8428 12.2349 14.0796 13.4965 11.8327C14.3065 11.5593 14.8496 11.7877 15.1855 12.5549L17.5946 20.5967C17.789 20.4696 17.8099 20.275 17.8822 20.0804C19.1213 16.764 19.5793 12.2943 20.9245 9.13228C21.4162 7.97587 22.5621 7.85846 23.0282 9.05026L26.035 22.3659V22.3643Z" fill="#00DB05"/>
</g>
<defs>
<clipPath id="clip0_430_4513">
<rect width="54" height="48" fill="white"/>
</clipPath>
</defs>
</svg>
