<svg width="49" height="55" viewBox="0 0 49 55" fill="none" xmlns="http://www.w3.org/2000/svg">
<g clip-path="url(#clip0_430_4508)">
<path d="M49 51.9139H9.14124L9.08414 51.4545L5.56424 54.9988L0 49.4445C0 49.2516 1.04272 48.2753 1.25858 48.0651C3.82827 45.5613 6.59211 43.2447 9.1401 40.7156V0H34.4373L48.9989 15.1033V51.9139H49ZM31.9829 4.24959H13.367V36.6383L22.5676 28.138C22.6738 28.0036 22.5802 27.9497 22.5105 27.8486C21.9806 27.0733 20.6123 26.2131 20.0984 25.4458C20.0265 25.339 19.9499 25.2621 20.0036 25.1197L27.7161 17.3521L37.5837 27.1641L29.8541 35.0223C29.588 35.0694 27.5745 32.6885 27.1325 32.383C27.032 32.3129 26.9772 32.2188 26.8447 32.3256L13.3909 46.827L13.3681 47.6654H44.7754V17.1132H32.1554L31.9841 16.9409V4.24959H31.9829ZM41.9191 13.8973L35.1808 6.89122V13.8973H41.9191Z" fill="#00DB05"/>
<path d="M26.0167 14.4991C27.0377 14.4428 27.6579 15.6476 27.072 16.4826L19.1345 24.465C17.8165 25.3264 16.4997 23.7402 17.4785 22.5699C20.0242 20.3808 22.338 17.1832 24.8997 15.1021C25.2218 14.8402 25.5861 14.5221 26.0167 14.4991Z" fill="#00DB05"/>
<path d="M38.6914 27.7084C39.9854 27.3708 40.8796 28.6238 40.0927 29.6908L32.3825 37.4423C31.1639 38.3967 29.7066 37.2447 30.4467 35.8401C33.0655 33.5442 35.4467 30.3271 38.0907 28.1368C38.2483 28.0059 38.5075 27.7567 38.6914 27.7084Z" fill="#00DB05"/>
</g>
<defs>
<clipPath id="clip0_430_4508">
<rect width="49" height="55" fill="white"/>
</clipPath>
</defs>
</svg>
