<svg width="47" height="47" viewBox="0 0 47 47" fill="none" xmlns="http://www.w3.org/2000/svg">
<g clip-path="url(#clip0_432_4518)">
<path d="M4.46779 0.0303497L42.3998 0C44.6063 0.172308 46.4126 1.73483 46.8453 3.89554C47.0508 16.941 47.0508 30.058 46.8453 43.1035C46.4136 45.2613 44.6092 46.8267 42.3998 46.999H4.7323C1.95742 46.7131 0.332999 44.7717 0.158954 42.0559C-0.349415 34.1219 0.552276 25.6592 0.157971 17.6694V16.5024C0.437229 12.6118 0.0714398 8.65163 0.200253 4.76687C0.28285 2.29189 2.00265 0.363218 4.46779 0.0303497ZM9.41775 5.92603C9.41775 4.55148 8.29875 3.43735 6.91819 3.43735C5.53763 3.43735 4.41863 4.55148 4.41863 5.92603C4.41863 7.30058 5.53763 8.41471 6.91819 8.41471C8.29875 8.41471 9.41775 7.30058 9.41775 5.92603ZM15.9597 5.92505C15.9597 4.55148 14.8417 3.43833 13.4621 3.43833C12.0825 3.43833 10.9645 4.55148 10.9645 5.92505C10.9645 7.29862 12.0825 8.41177 13.4621 8.41177C14.8417 8.41177 15.9597 7.29862 15.9597 5.92505ZM22.5026 5.92603C22.5026 4.55148 21.3836 3.43735 20.003 3.43735C18.6225 3.43735 17.5035 4.55148 17.5035 5.92603C17.5035 7.30058 18.6225 8.41471 20.003 8.41471C21.3836 8.41471 22.5026 7.30058 22.5026 5.92603ZM42.6426 12.0459H4.49041V42.2977H42.6426V12.0459Z" fill="#00DB05"/>
<path d="M25.7303 14.6892V18.1647C25.7303 18.4604 27.0617 18.8129 27.399 18.9509C27.691 19.0703 27.9408 19.2485 28.224 19.3787L30.8799 16.8499L33.9449 19.878L31.4473 22.493L32.467 24.969H36.056V29.3746H32.3195C32.2791 30.2821 31.6872 31.0095 31.4473 31.8505L33.9449 34.4655L30.8799 37.4936L28.224 34.9697L25.7313 36.0809V39.6543H21.4048V36.0809L18.9121 34.9697L16.2562 37.4936L13.1912 34.4655L15.6888 31.8505C15.4489 31.0095 14.857 30.2821 14.8166 29.3746H11.0801V24.969H14.6691L15.6888 22.493L13.147 19.927L16.1411 16.9351L16.3889 16.8861L18.9111 19.3787L21.4048 18.2626V14.6892H25.7313H25.7303ZM28.4856 27.1649C28.4856 24.4599 26.283 22.2678 23.5671 22.2678C20.8512 22.2678 18.6486 24.4608 18.6486 27.1649C18.6486 29.869 20.8512 32.062 23.5671 32.062C26.283 32.062 28.4856 29.869 28.4856 27.1649Z" fill="#00DB05"/>
</g>
<defs>
<clipPath id="clip0_432_4518">
<rect width="47" height="47" fill="white"/>
</clipPath>
</defs>
</svg>
