<svg width="41" height="57" viewBox="0 0 41 57" fill="none" xmlns="http://www.w3.org/2000/svg">
<g clip-path="url(#clip0_430_4505)">
<path d="M18.3379 0.0805099C25.4841 -0.511685 32.0281 2.13788 34.7464 9.19826C36.3386 13.3321 35.403 17.9497 35.677 22.2967C35.7489 22.5112 36.913 22.7243 37.2615 22.8647C39.5354 23.7798 40.6806 25.9099 40.8422 28.3067C41.3422 35.713 40.4584 43.6898 40.8359 51.156C40.6389 53.8145 39.2362 55.9816 36.6428 56.7448C26.2846 57.2515 15.8203 56.824 5.42411 56.9618C2.21587 56.533 0.392697 54.2255 0.176795 51.0348C0.626276 43.5877 -0.414096 35.4386 0.198259 28.0732C0.439413 25.1748 2.33077 22.866 5.23851 22.4473L5.34204 22.2967C5.61602 17.9842 4.69054 13.3985 6.23974 9.29271C8.15256 4.22332 12.9605 0.525932 18.3379 0.0805099ZM29.9789 22.3771V13.2517C29.9789 11.9895 28.6229 9.53648 27.7706 8.59203C24.2266 4.66491 16.4919 4.73511 13.064 8.78858C12.3014 9.68963 11.0401 12.0865 11.0401 13.2517V22.3771H29.9789ZM25.4336 47.7751L22.9072 41.0683C22.9135 40.776 23.4917 40.5807 23.7266 40.3689C27.4108 37.034 24.8465 31.1031 19.9363 31.56C15.2622 31.9952 13.8935 38.6 18.0538 40.8832L18.1118 41.0683L15.5854 47.7751H25.4336Z" fill="#00DB05"/>
</g>
<defs>
<clipPath id="clip0_430_4505">
<rect width="41" height="57" fill="white"/>
</clipPath>
</defs>
</svg>
