<svg width="63" height="63" viewBox="0 0 63 63" fill="none" xmlns="http://www.w3.org/2000/svg">
<g clip-path="url(#clip0_430_4501)">
<path d="M63 37.1166V25.9514H56.9945C56.9816 25.8794 56.97 25.806 56.9585 25.7326C56.9259 25.5275 56.8919 25.3162 56.8355 25.0974C56.1548 22.4534 55.0305 19.8786 53.489 17.4343L57.68 13.1611L49.8884 5.34992L45.5807 9.52184C42.8653 7.81055 40.0018 6.63187 37.0486 6.01093V0H25.9514V6.00958C23.0872 6.61216 20.2271 7.79152 17.4302 9.5232L13.151 5.3112L5.31867 13.2162L9.51301 17.4424C7.78065 20.2319 6.60401 23.0872 6.00822 25.9514H0V36.5887L0.86414 37.122L6.01161 37.0595C6.01569 37.0867 6.01977 37.1125 6.02384 37.1349C6.05781 37.3462 6.08634 37.5283 6.12099 37.6662C6.82276 40.4665 7.96204 43.1282 9.51097 45.5902L5.32071 49.9136L13.1537 57.684L17.4221 53.4985C19.7984 55.006 22.3209 56.1134 24.9303 56.7941C25.164 56.8552 25.3957 56.8987 25.6185 56.9408C25.7326 56.9619 25.844 56.983 25.9514 57.0054V62.9986H37.0486V57.0142C37.0969 57.0054 37.1458 56.9965 37.194 56.9877C37.3679 56.9565 37.5486 56.9239 37.7321 56.8777C40.5595 56.1745 43.1968 55.0393 45.5827 53.5006L49.8456 57.6847L57.6827 49.9095L53.4856 45.6296C55.201 42.8843 56.3858 40.0262 57.0162 37.1139L62.9993 37.1152L63 37.1166ZM53.6385 34.1356C53.1711 38.1145 51.5807 41.9814 49.0399 45.3191L48.5345 45.9828L52.3233 49.8368L49.8361 52.3239L45.9808 48.5338L45.3171 49.0413C42.0052 51.5732 38.1145 53.1765 34.0649 53.6765L33.2205 53.7812V59.1725H29.7795V54.2085L29.09 53.6473L28.8053 53.6174C24.9928 53.2159 21.1436 51.6324 17.6734 49.0372L17.0111 48.542L13.1645 52.3233L10.7413 49.8918L14.5355 45.9713L14.0117 45.3103C11.5103 42.154 9.9016 38.2864 9.35948 34.1247L9.25214 33.3013L3.82817 33.2048V29.7809H9.2963L9.39276 28.9256C9.84861 24.88 11.4872 20.9139 14.0069 17.759L14.5355 17.0973L10.7379 13.1741L13.1693 10.6788L17.0905 14.543L17.7583 14.0069C20.9065 11.4825 24.77 9.88666 28.9297 9.39344L29.7789 9.2929V3.82817H33.2198V8.70797L33.4718 8.98379C33.6763 9.2073 33.9243 9.35608 34.2076 9.42469C34.5771 9.51437 34.978 9.56328 35.3652 9.61016C35.6811 9.6482 35.9793 9.68489 36.2388 9.73924C38.3686 10.1869 40.6207 11.0538 42.5793 12.1802C43.2668 12.5755 43.9142 13.0232 44.6003 13.4967C44.8694 13.6829 45.1479 13.8752 45.4271 14.0627L46.0793 14.5008L49.8878 10.7556L52.2635 13.1605L48.4713 17.0274L48.9937 17.6924C51.2519 20.5668 52.7546 23.9303 53.4605 27.6898C53.4802 27.7958 53.4965 27.9215 53.5135 28.0547C53.5604 28.4188 53.6134 28.8312 53.7879 29.2157L54.0447 29.7802H59.1712V33.2891L53.7377 33.2857L53.6378 34.1369L53.6385 34.1356Z" fill="#00DB05"/>
<path d="M47.5067 39.9345C47.097 38.2443 46.1663 35.9678 44.0569 34.7252L44.0467 34.7191L37.9067 31.3067C38.0269 31.0859 38.1486 30.857 38.2572 30.6117C38.3605 30.3787 38.4414 30.1348 38.5195 29.8984C38.5956 29.6688 38.6737 29.431 38.7525 29.2788C38.8184 29.1511 38.9692 28.9622 39.1146 28.7802C39.2688 28.5872 39.4285 28.3882 39.5664 28.1694C40.4488 26.7734 41.4706 24.615 40.1662 21.9975C40.1445 21.954 40.1214 21.9139 40.0976 21.8759C40.1336 21.6972 40.1696 21.5002 40.1676 21.2971C40.1425 18.9812 39.1092 16.8874 37.2586 15.4016C35.601 14.0708 33.3625 13.3079 31.1179 13.3079C30.8611 13.3079 30.603 13.3181 30.3489 13.3371C28.3183 13.494 26.4711 14.3018 25.1484 15.6116C23.7632 16.9839 23.003 18.8032 22.9493 20.8732C22.9432 21.1055 22.9704 21.3406 22.9949 21.5484C23.0064 21.651 23.0234 21.7978 23.0261 21.88C22.9996 21.935 22.9527 22.0199 22.9194 22.0811C22.842 22.221 22.7544 22.38 22.6912 22.5471C21.825 24.8406 22.679 26.7238 23.3977 27.9412C23.5594 28.215 23.7815 28.4908 23.9962 28.7571C24.1362 28.9303 24.3474 29.1925 24.395 29.289C24.4385 29.378 24.4996 29.5886 24.5485 29.7578C24.6165 29.9928 24.6871 30.236 24.7843 30.4636C24.8964 30.7252 25.0261 30.9962 25.1715 31.2707L18.7068 34.8672L18.6762 34.8876C16.6021 36.2599 15.7414 38.6614 15.3847 40.4338C15.3745 40.4855 15.3637 40.5385 15.3521 40.5921C15.1891 41.3849 14.9649 42.4705 15.5926 43.264C15.8399 43.5765 16.3181 43.9543 17.1932 43.9801H17.221H45.9258L45.9564 43.978C46.7546 43.9278 47.1976 43.5405 47.4285 43.2246C48.0984 42.3102 47.7689 40.9834 47.5501 40.1057C47.5352 40.0459 47.5209 39.9882 47.508 39.9338L47.5067 39.9345ZM26.162 24.3066C26.177 24.1239 26.2741 23.9649 26.4303 23.719C26.5893 23.4703 26.7693 23.1891 26.8305 22.8222C26.9039 22.3847 26.8583 21.9493 26.8183 21.5647C26.7945 21.3338 26.7714 21.1157 26.7789 20.9418C26.8964 18.1367 29.1267 17.1374 31.1736 17.1374C33.5004 17.1374 36.0779 18.4818 36.2715 20.9737C36.283 21.1191 36.2667 21.3426 36.2511 21.5593C36.2131 22.0906 36.1696 22.6932 36.4094 23.2163C36.5405 23.5023 36.6662 23.7088 36.7674 23.8746C36.9529 24.1789 36.9869 24.2339 36.9481 24.6925C36.8897 25.3814 36.5684 25.7822 36.1227 26.3365C35.8883 26.6287 35.622 26.9588 35.3904 27.3535C35.19 27.6939 35.0527 28.1314 34.9203 28.5546C34.8319 28.8366 34.7409 29.1273 34.6526 29.3135C34.3944 29.8576 34.103 30.2625 33.9861 30.3536C33.6403 30.5465 33.209 30.7109 32.7531 30.8841C32.3299 31.0451 31.8944 31.2109 31.482 31.4174C31.3835 31.3814 31.2585 31.3271 31.179 31.2924C31.0975 31.2564 31.0201 31.2231 30.9508 31.1953C30.2144 30.9018 29.658 30.6572 29.2979 30.4684C28.7748 30.1939 28.533 29.4813 28.2762 28.7279C28.0812 28.1552 27.8801 27.5628 27.5241 27.0634C27.3747 26.8535 27.2245 26.6599 27.0798 26.4724C26.429 25.63 26.0927 25.1511 26.1627 24.308L26.162 24.3066ZM19.4133 40.1499C19.5675 39.6818 19.7733 39.2402 20.0138 38.8781C20.4038 38.2905 20.9079 38.0119 21.6056 37.6261C21.7469 37.5479 21.8909 37.4684 22.0376 37.3842C23.0458 36.8061 24.0947 36.2429 25.1083 35.6987C26.0737 35.1804 27.0683 34.6464 28.0431 34.0914C28.3319 34.215 28.6233 34.3522 28.9263 34.4956C29.3196 34.6811 29.7273 34.8733 30.1464 35.0418C30.1994 35.0629 30.2517 35.0853 30.3054 35.1077C30.639 35.2476 31.054 35.4222 31.5432 35.4222C31.8217 35.4222 32.0901 35.3645 32.3414 35.251L34.9712 34.1036L42.4142 38.2388C42.9788 38.7422 43.332 39.4297 43.578 40.1492H19.4133V40.1499Z" fill="#00DB05"/>
</g>
<defs>
<clipPath id="clip0_430_4501">
<rect width="63" height="63" fill="white"/>
</clipPath>
</defs>
</svg>
