<svg width="462" height="401" viewBox="0 0 462 401" fill="none" xmlns="http://www.w3.org/2000/svg">
<path d="M403.538 130.363C391.211 125.392 378.058 121.94 367.14 114.363C338.751 94.6694 364.453 52.344 330.811 39.3123C321.221 35.5991 310.594 35.5186 300.36 36.6054C273.471 39.4633 219.371 64.4902 195.149 44.2332C186.585 37.0683 187.984 23.5334 182.852 13.6213C176.25 0.851221 161.759 -0.789063 148.908 0.267561C142.236 0.821031 135.605 2.27012 129.094 3.88021C89.7364 13.6313 49.3526 32.9122 27.8978 68.9683C23.2485 76.7772 21.1654 86.6692 24.6775 95.0518C27.9078 102.78 35.254 107.993 42.7913 111.646C50.3287 115.299 58.4397 117.835 65.4638 122.383C89.4747 137.931 75.9397 160.1 60.553 175.818C50.218 186.374 39.8931 196.941 29.5582 207.497C20.6925 216.553 10.911 228.035 12.2897 241.621C13.5576 254.139 23.9026 265.007 34.3986 270.904C52.1099 280.847 77.9221 279.79 80.2568 305.632C82.1084 326.201 67.6677 350.674 75.1748 370.026C94.7881 420.562 184.623 357.799 211.119 344.677C228.196 336.214 248.756 329.159 266.839 338.85C281.431 346.659 288.053 363.082 299.676 374.111C334.354 406.997 453.291 365.024 410.965 316.158C391.322 293.476 404.504 270.612 424.309 252.791C437.733 240.705 453.301 229.273 459.259 212.226C472.059 175.627 433.557 142.459 403.518 130.353L403.538 130.363Z" fill="#E6F4FC"/>
<path d="M244.851 2.95443C254.441 5.94317 268.087 13.4704 262.391 25.6769C259.785 31.2518 254.26 34.8544 248.685 37.4608C237.696 42.603 224.362 43.8307 213.202 38.3866C200.744 32.3185 193.73 16.1773 205.826 6.10418C215.919 -2.2985 233.248 -0.668282 244.841 2.94437L244.851 2.95443Z" fill="#E6F4FC"/>
<path d="M45.2971 126.851C54.8874 129.84 68.5331 137.367 62.8374 149.574C60.231 155.149 54.7063 158.751 49.1312 161.358C38.1422 166.5 24.8084 167.728 13.6483 162.284C1.18997 156.215 -5.82411 140.074 6.2719 130.001C16.3653 121.598 33.6942 123.229 45.2871 126.841L45.2971 126.851Z" fill="#E6F4FC"/>
<path d="M250.094 347.494C262.744 349.074 265.903 360.184 263.116 371.313C260.016 383.681 249.692 393.18 237.797 397.095C219.25 403.193 188.316 392.959 203.451 369.905C211.773 357.225 234.838 345.592 250.104 347.494H250.094Z" fill="#E6F4FC"/>
<path d="M413.863 401H40.658C38.4139 401 36.6025 399.188 36.6025 396.944C36.6025 394.7 38.4139 392.889 40.658 392.889H413.853C416.097 392.889 417.909 394.7 417.909 396.944C417.909 399.188 416.097 401 413.853 401H413.863Z" fill="#B3E8FF"/>
<path d="M389.188 132.436C389.802 131.027 391.211 130.081 392.419 128.803C393.797 127.344 395.116 125.835 396.363 124.265C406.225 111.877 411.649 96.3196 411.649 80.4904C411.649 41.6469 380.162 10.1494 341.307 10.1494C302.453 10.1494 270.965 41.6368 270.965 80.4904C270.965 119.344 302.453 150.831 341.307 150.831C346.057 150.831 350.807 150.348 355.466 149.392C357.519 148.97 359.492 148.255 361.484 147.631C363.165 147.108 365.932 145.941 367.713 146.394C369.082 146.736 370.461 148.618 371.618 149.473C373.258 150.68 374.999 151.757 376.821 152.673C382.365 155.46 388.615 156.728 394.804 156.507C396.927 156.437 397.863 153.86 396.333 152.371C392.771 148.909 390.607 144.26 389.581 139.44C389.218 137.739 389.057 136.049 388.906 134.328C388.846 133.603 388.957 132.979 389.198 132.436H389.188Z" fill="#5FC8D7"/>
<mask id="mask0_62_258" style="mask-type:luminance" maskUnits="userSpaceOnUse" x="270" y="10" width="142" height="147">
<path d="M389.188 132.436C389.802 131.027 391.211 130.081 392.419 128.803C393.797 127.344 395.116 125.835 396.363 124.265C406.225 111.877 411.649 96.3196 411.649 80.4904C411.649 41.6469 380.162 10.1494 341.307 10.1494C302.453 10.1494 270.965 41.6368 270.965 80.4904C270.965 119.344 302.453 150.831 341.307 150.831C346.057 150.831 350.807 150.348 355.466 149.392C357.519 148.97 359.492 148.255 361.484 147.631C363.165 147.108 365.932 145.941 367.713 146.394C369.082 146.736 370.461 148.618 371.618 149.473C373.258 150.68 374.999 151.757 376.821 152.673C382.365 155.46 388.615 156.728 394.804 156.507C396.927 156.437 397.863 153.86 396.333 152.371C392.771 148.909 390.607 144.26 389.581 139.44C389.218 137.739 389.057 136.049 388.906 134.328C388.846 133.603 388.957 132.979 389.198 132.436H389.188Z" fill="white"/>
</mask>
<g mask="url(#mask0_62_258)">
<path d="M360.85 49.5262C360.749 43.9714 367.914 40.8518 372.553 41.0028C376.448 41.1336 380.191 42.9148 382.295 46.2658C386.884 53.6018 378.591 70.7895 390.818 73.3556C396.152 74.4827 395.719 85.1395 384.851 84.5055C373.972 83.8615 366.707 73.2047 370.772 61.8938C371.869 58.8346 372.765 54.6181 369.756 52.3137C368.126 51.0659 365.741 50.8948 363.939 51.9011C363.426 52.1929 362.863 52.5854 362.289 52.4345C361.876 52.3238 361.585 51.9615 361.383 51.5791C361.031 50.9049 360.86 50.2105 360.85 49.5262Z" fill="#662D91"/>
<g style="mix-blend-mode:multiply" opacity="0.5">
<path d="M390.828 73.3556C389.55 73.0839 388.514 72.6512 387.648 72.0876C378.309 76.3343 372.805 67.036 373.59 63.9869C374.385 60.9076 376.096 55.9867 373.409 52.8068C370.722 49.6268 369.917 48.8319 369.494 46.5073C369.152 44.6355 367.149 43.0355 366.153 42.4619C364.161 43.428 362.4 44.8469 361.504 46.6784C362.228 47.2721 362.792 47.8557 362.933 48.3991C363.134 49.1941 363.557 50.4218 364.06 51.8508C365.841 50.9149 368.166 51.086 369.766 52.3137C372.775 54.6181 371.879 58.8346 370.782 61.8937C366.727 73.1946 373.982 83.8615 384.861 84.5055C395.739 85.1495 396.162 74.4827 390.828 73.3556Z" fill="#662D91"/>
</g>
<path d="M366.988 47.7351C367.763 50.7842 366.254 53.793 363.617 54.4572C360.981 55.1214 358.223 53.1993 357.449 50.1502C356.674 47.1011 358.183 44.0922 360.82 43.4281C363.456 42.7639 366.214 44.686 366.988 47.7351Z" fill="#FFD54C"/>
<g style="mix-blend-mode:multiply" opacity="0.5">
<path d="M363.617 54.4574C365.418 54.0045 366.666 52.4448 367.049 50.5328C365.791 51.2875 363.929 51.0561 363.617 48.9428C363.265 46.5679 360.9 44.6962 359.813 43.8408C357.831 44.9377 356.794 47.5239 357.458 50.1504C358.233 53.1995 360.991 55.1215 363.627 54.4574H363.617Z" fill="#FFD54C"/>
</g>
<path d="M330.61 95.6856C331.505 94.3975 332.29 93.0188 332.713 91.5094C334.142 86.337 331.133 86.4678 327.158 85.8439C323.918 85.3307 320.728 84.6967 317.678 83.8614C313.512 82.7646 306.136 80.2488 303.399 76.6764C300.883 73.3858 299.897 69.0184 299.333 64.9931C299.182 63.9466 299.223 52.5854 299.665 49.6469C300.511 49.4859 301.114 49.1538 301.114 49.1538C301.114 49.1538 303.912 47.8155 304.224 45.6318C304.355 44.7261 304.818 43.9009 305.361 43.1764C305.673 42.7537 306.861 41.8581 305.894 41.6065C305.26 41.4455 304.033 42.0392 303.56 42.4317C302.483 43.3173 301.014 44.2229 300.913 43.6996C300.812 43.1764 301.93 38.9801 304.435 37.8832C306.941 36.7863 306.488 35.9209 305.452 35.8605C304.415 35.8001 302.684 36.8769 302.684 36.8769C303.328 36.414 305.905 35.0957 304.979 34.1598C304.133 33.2944 301.034 34.5422 300.289 35.0152C298.025 36.4442 293.758 42.3009 295.439 47.5236C295.469 47.5941 295.509 47.6444 295.549 47.7048C293.275 54.608 292.279 58.5326 291.826 66.0397C291.645 69.7832 291.766 73.6877 292.863 77.7934C293.426 79.8362 294.231 81.9495 295.549 83.9721C296.224 84.9784 296.978 85.9546 297.874 86.8502C298.739 87.7257 299.867 88.6213 300.631 89.1144C304.033 91.5597 309.98 94.4679 313.442 95.9371C316.914 97.4164 320.396 98.634 323.898 99.6907C326.625 100.526 328.587 98.473 330.117 96.39C330.288 96.1485 330.469 95.907 330.64 95.6654L330.61 95.6856Z" fill="#FFD2C7"/>
<g style="mix-blend-mode:multiply" opacity="0.5">
<path d="M314.629 82.9657C312.627 85.4311 310.161 90.0098 308.672 89.245C306.75 88.2689 300.682 85.6424 296.395 81.0738C292.138 76.5454 292.058 62.9804 292.058 62.769C291.957 63.7955 291.866 64.8823 291.796 66.0597C291.615 69.8031 291.736 73.7076 292.833 77.8134C293.396 79.8562 294.201 81.9694 295.519 83.9921C296.194 84.9984 296.948 85.9745 297.844 86.8701C298.709 87.7456 299.837 88.6412 300.601 89.1343C304.003 91.5797 309.95 94.4879 313.412 95.9571C315.626 96.903 317.84 97.7282 320.054 98.4829C321.734 97.0741 323.022 95.6351 323.455 94.3671C324.632 90.9457 324.26 87.4538 323.515 85.1997C321.523 84.8173 319.56 84.3745 317.659 83.8613C316.763 83.6298 315.726 83.3179 314.619 82.9657H314.629Z" fill="#FFD2C7"/>
</g>
<path d="M339.556 86.6188C337.735 84.3747 335.078 82.9558 332.23 82.4124C326.263 81.2551 318.615 81.5671 318.615 81.5671C318.615 81.5671 312.728 88.1785 312.728 98.3825C318.564 101.281 329.141 103.545 332.995 102.82C340.663 101.371 344.719 92.9786 339.556 86.6188Z" fill="#F7A021"/>
<path d="M313.593 160.995C313.442 160.834 313.321 160.633 313.241 160.391C312.235 157.272 313.895 148.728 315.123 145.749C320.436 132.869 320.688 126.016 315.777 112.904C314.529 109.573 313.694 106.181 314.378 102.619C315.717 95.6252 321.694 90.3018 327.843 87.3131C334.847 83.9118 342.897 81.0035 350.727 81.0639C354.893 81.0941 359.794 82.1809 363.235 84.6464C366.425 86.9307 365.962 91.5698 365.852 95.2831C365.691 100.898 364.996 106.443 363.155 111.776C359.733 121.648 357.288 129.709 357.761 140.315C358.043 146.746 358.677 145.095 359.633 151.455C360.558 157.594 362.722 161.387 355.295 161.538C347.899 161.689 340.472 161.579 333.076 161.579C326.766 161.579 324.874 161.579 318.564 161.579C317.005 161.579 314.6 162.052 313.603 160.995H313.593Z" fill="#FFB031"/>
<path d="M340.532 70.3775C340.623 72.7826 340.492 75.2279 340.24 77.6129C340.029 79.5752 339.918 82.101 339.073 83.9124C338.288 85.603 336.054 86.8609 334.876 88.4508C333.951 89.6987 333.166 91.2685 333.588 92.7578C334.001 94.217 335.511 95.1529 337.01 95.334C338.509 95.5051 340.019 95.0522 341.428 94.4987C344.769 93.2006 347.918 91.3289 350.464 88.793C352.779 86.4885 354.641 82.5035 352.296 79.5651C350.132 76.8582 347.254 69.653 347.254 67.9724C347.254 66.2919 340.532 70.3775 340.532 70.3775Z" fill="#FFD2C7"/>
<path d="M364.08 91.5193C364.08 91.5193 364.01 91.4488 363.979 91.4086C362.691 89.9998 361.232 88.6614 359.461 88.0978C353.634 86.2764 351.682 95.464 350.082 99.6301C348.522 103.686 347.305 107.962 345.503 111.907C343.621 116.023 348.09 119.636 351.35 119.324C352.749 119.193 354.117 117.653 355.043 116.697C356.955 114.745 358.585 112.491 360.035 110.146C361.806 107.268 363.295 104.179 364.362 100.938C365.509 97.4766 366.636 94.4275 364.08 91.5092V91.5193Z" fill="#FFD2C7"/>
<path d="M364.392 110.338C364.392 110.338 351.199 106.705 348.351 100.909C350.072 95.384 354.56 79.6152 363.406 84.1536C372.252 88.6921 367.059 106.071 364.392 110.338Z" fill="#F7A021"/>
<g style="mix-blend-mode:multiply" opacity="0.5">
<path d="M350.394 76.4453C349.67 75.0264 348.965 73.4465 348.422 72.0075L346.319 69.9043L340.563 72.4704C340.542 74.1912 340.432 75.912 340.251 77.6126C340.069 79.3435 339.959 81.507 339.355 83.2379C346.701 81.9901 349.408 78.6089 350.404 76.4352L350.394 76.4453Z" fill="#FFD2C7"/>
</g>
<path d="M334.122 49.6373C333.609 50.6335 333.226 51.7405 333.015 52.938C332.029 58.3922 328.557 74.2818 335.742 77.0995C343.501 80.1385 353.292 73.0541 356.664 65.6276C359.431 59.8513 361.192 51.1065 355.828 46.2058C349.519 40.4497 338.006 42.0799 334.122 49.6474V49.6373Z" fill="#FFCAC0"/>
<path d="M362.47 50.5828C361.766 47.4532 359.964 44.706 357.247 42.9953C350.314 38.6178 333.146 38.1046 331.224 52.5954C331.033 54.0345 331.968 55.3829 333.387 55.6748C336.467 56.3087 342.354 56.8622 349.7 54.3062C350.394 54.0647 351.139 54.5678 351.159 55.3125C351.29 58.905 349.327 64.3793 348.432 65.6674C347.405 67.1467 350.475 66.1504 352.065 65.1844C353.655 64.2183 353.695 68.4448 352.065 68.8675C350.434 69.2901 348.462 69.8436 348.432 71.1216C348.402 72.3895 348.512 74.3619 350.857 75.1066C352.98 75.7808 365.398 63.7957 362.45 50.5828H362.47Z" fill="#662D91"/>
<g style="mix-blend-mode:multiply" opacity="0.5">
<path d="M313.593 161.005C314.589 162.062 316.984 161.589 318.554 161.589C324.864 161.589 326.755 161.589 333.065 161.589C340.472 161.589 347.888 161.7 355.285 161.549C362.711 161.398 360.558 157.614 359.622 151.466C358.656 145.106 358.032 146.756 357.75 140.326C357.398 132.305 358.706 125.744 360.85 118.75C360.85 118.75 350.927 129.88 350.394 137.83C349.901 145.186 328.718 152.532 313.2 154.032C312.868 156.578 312.798 159.023 313.24 160.392C313.321 160.633 313.442 160.834 313.593 160.995V161.005Z" fill="#FFB031"/>
</g>
<g style="mix-blend-mode:multiply" opacity="0.5">
<path d="M354.118 52.5449C353.594 50.2505 351.139 50.7234 343.179 53.1788C337.08 55.0506 333.045 52.9876 331.365 51.8304C331.324 52.082 331.274 52.3335 331.234 52.5952C331.043 54.0342 331.978 55.3826 333.397 55.6745C336.477 56.3084 342.364 56.8619 349.71 54.3059C350.404 54.0644 351.149 54.5675 351.169 55.3122C351.3 58.9047 349.337 64.379 348.442 65.6671C347.415 67.1464 350.485 66.1501 352.075 65.1841C353.665 64.218 353.705 68.4445 352.075 68.8672C350.444 69.2898 348.472 69.8433 348.442 71.1213C348.412 72.3893 348.522 74.3616 350.867 75.1063C352.618 75.6598 361.363 67.6093 362.722 57.3651C359.391 59.6695 354.601 54.7084 354.097 52.5449H354.118Z" fill="#662D91"/>
</g>
<path d="M351.894 57.4961L355.245 63.383C355.587 63.9868 355.325 64.7818 354.661 65.1541L342.565 72.0473C341.901 72.4297 341.086 72.2486 340.744 71.6448L337.393 65.7579C337.05 65.1541 337.312 64.3591 337.976 63.9868L350.072 57.0936C350.736 56.7112 351.552 56.8923 351.894 57.4961Z" fill="#EF56B5"/>
<path d="M355.184 112.109C355.184 112.109 355.174 112.069 355.164 112.049C354.611 110.126 354.148 108.064 353.685 106.021C352.779 101.895 352.004 97.6583 351.27 93.4218C349.841 85.0392 347.436 79.4039 346.309 71.0213C346.429 70.9912 346.56 70.961 346.681 70.9308C347.184 70.81 347.577 70.4679 348.019 70.2062C348.512 69.9144 349.046 69.6326 349.609 69.5219C350.565 69.3307 351.974 68.415 351.974 68.415C351.974 68.415 351.753 67.459 350.756 67.8716C350.012 68.1836 349.317 68.3144 348.955 68.3748C349.096 68.1836 349.257 68.0024 349.388 67.7911C349.69 67.2779 350.183 66.8653 350.555 66.3923C350.968 65.8791 351.34 65.3357 351.692 64.7822C352.246 63.9067 353.071 62.669 352.96 61.5721C352.799 60.0727 352.175 58.1808 350.354 58.8148C348.543 59.4488 347.124 59.8413 346.248 61.9746C345.383 64.108 342.223 67.2577 341.569 68.6062C341.056 69.6628 341.378 70.5182 341.539 70.8402C341.438 79.5146 341.539 85.643 341.8 94.3778C341.951 98.7753 342.122 103.183 342.464 107.651C342.656 109.895 342.837 112.139 343.159 114.464C343.159 114.534 343.179 114.615 343.189 114.685C343.692 118.539 347.748 120.844 351.33 119.344L351.773 119.163C354.52 118.016 355.939 115.007 355.184 112.119V112.109Z" fill="#FFD2C7"/>
<g style="mix-blend-mode:multiply" opacity="0.5">
<path d="M341.548 70.8302C341.508 74.1611 341.508 77.1096 341.528 79.9876C341.528 79.9373 342.102 75.1372 342.172 73.5472C342.223 72.6114 342.736 72.0277 343.33 71.3736C343.843 70.8 342.937 70.327 342.565 69.9044C341.901 69.1597 345.05 63.9974 345.05 63.9873C343.772 65.7584 342.052 67.6301 341.579 68.5861C341.065 69.6428 341.387 70.4981 341.548 70.8201V70.8302Z" fill="#FFD2C7"/>
</g>
<g style="mix-blend-mode:multiply" opacity="0.5">
<path d="M347.063 115.308C344.819 112.35 341.609 84.8876 341.579 84.5454C341.629 87.6147 341.709 90.7745 341.81 94.367C341.961 98.7645 342.132 103.172 342.474 107.64C342.665 109.884 342.847 112.128 343.169 114.453C343.169 114.523 343.189 114.604 343.199 114.674C343.702 118.528 347.757 120.833 351.34 119.334L351.783 119.152C352.034 119.052 352.256 118.911 352.477 118.78C350.424 119.001 349.207 118.136 347.063 115.308Z" fill="#FFD2C7"/>
</g>
</g>
<path d="M187.249 305.682C185.981 305.682 184.955 304.655 184.955 303.387C184.955 259.049 172.023 255.608 168.069 255.608H107.387C106.119 255.608 105.093 254.581 105.093 253.313C105.093 252.045 106.119 251.019 107.387 251.019H168.069C176.089 251.019 189.554 257.822 189.554 303.387C189.554 304.655 188.527 305.682 187.259 305.682H187.249Z" fill="#E6E7E8"/>
<path d="M128.349 247.356H159.817C161.86 247.356 163.52 249.017 163.52 251.06V254.924C163.52 256.967 161.86 258.627 159.817 258.627H128.349C126.306 258.627 124.646 256.967 124.646 254.924V251.06C124.646 249.017 126.306 247.356 128.349 247.356Z" fill="#BBA4A0"/>
<g style="mix-blend-mode:multiply" opacity="0.5">
<path d="M162.967 255.89H131.65C129.557 255.89 127.866 254.199 127.866 252.106V248.403C127.866 248.051 127.927 247.719 128.017 247.396C126.125 247.598 124.636 249.188 124.636 251.14V254.843C124.636 256.936 126.327 258.627 128.42 258.627H159.737C161.478 258.627 162.927 257.45 163.369 255.849C163.239 255.86 163.108 255.89 162.967 255.89Z" fill="#BBA4A0"/>
</g>
<path d="M186.585 310.271H145.306C118.779 310.271 97.1934 288.686 97.1934 262.159V188.075C97.1934 183.849 100.625 180.417 104.851 180.417C109.078 180.417 112.51 183.849 112.51 188.075V262.159C112.51 280.243 127.222 294.955 145.306 294.955H186.585C190.812 294.955 194.243 298.387 194.243 302.613C194.243 306.84 190.812 310.271 186.585 310.271Z" fill="#F16680"/>
<path d="M185.941 290.376C181.865 283.725 173.342 277.003 155.57 277.003H131.932C117.4 277.003 105.626 265.229 105.626 250.698V188.125C105.626 186.918 104.932 185.831 103.845 185.318C100.343 183.647 91.407 180.417 74.8832 180.417C58.3593 180.417 47.3099 183.808 43.184 185.438C41.9965 185.901 41.2317 187.049 41.2317 188.317V265.108C41.2317 286.24 58.3593 303.368 79.4921 303.368H178.545C185.216 303.368 189.423 296.052 185.941 290.366V290.376Z" fill="#5FC8D7"/>
<path d="M155.57 277.013H131.932C117.4 277.013 105.626 265.239 105.626 250.708V213.424C105.626 213.424 101.4 223.074 94.5266 223.074C87.6534 223.074 87.7641 198.651 78.1135 198.651C68.4628 198.651 69.8817 223.074 61.6903 223.074C53.4988 223.074 48.8898 214.843 48.8898 214.843C48.8898 214.843 43.7274 216.372 41.2317 226.556V253.193C43.7576 268.268 49.9263 284.52 59.3656 292.379C73.0013 303.74 118.719 301.748 144.078 301.748C169.437 301.748 178.927 297.199 181.775 294.08C183.123 292.59 183.586 289.712 182.962 286.502C178.132 281.35 169.84 277.023 155.57 277.023V277.013Z" fill="#E6F4FC"/>
<path d="M228.196 231.699H173.643C172.154 231.699 170.947 232.906 170.947 234.396C170.947 235.885 172.154 237.093 173.643 237.093H228.196C229.686 237.093 230.893 235.885 230.893 234.396C230.893 232.906 229.686 231.699 228.196 231.699Z" fill="#5FC8D7"/>
<path d="M296.606 159.386H214.41L205.051 224.927H288.113C289.633 224.927 290.921 223.81 291.142 222.3L299.635 162.878C299.897 161.036 298.468 159.386 296.606 159.386Z" fill="#5FC8D7"/>
<path d="M232.222 168.523H230.34L228.377 182.269H230.259L232.222 168.523Z" fill="#45A7AF"/>
<path d="M235.412 168.523L233.449 182.269H235.321L237.284 168.523H235.412Z" fill="#45A7AF"/>
<path d="M240.484 168.523L238.521 182.269H240.393L242.356 168.523H240.484Z" fill="#45A7AF"/>
<path d="M245.545 168.523L243.583 182.269H245.465L247.427 168.523H245.545Z" fill="#45A7AF"/>
<path d="M250.617 168.523L248.655 182.269H250.537L252.499 168.523H250.617Z" fill="#45A7AF"/>
<path d="M255.689 168.523L253.727 182.269H255.599L257.561 168.523H255.689Z" fill="#45A7AF"/>
<path d="M260.761 168.523L258.799 182.269H260.671L262.633 168.523H260.761Z" fill="#45A7AF"/>
<path d="M265.823 168.523L263.861 182.269H265.742L267.705 168.523H265.823Z" fill="#45A7AF"/>
<path d="M270.895 168.523L268.933 182.269H270.814L272.777 168.523H270.895Z" fill="#45A7AF"/>
<path d="M275.967 168.523L274.004 182.269H275.876L277.838 168.523H275.967Z" fill="#45A7AF"/>
<path d="M281.039 168.523L279.076 182.269H280.948L282.911 168.523H281.039Z" fill="#45A7AF"/>
<path d="M286.1 168.523L284.138 182.269H286.02L287.982 168.523H286.1Z" fill="#45A7AF"/>
<g style="mix-blend-mode:multiply" opacity="0.5">
<path d="M205.594 221.122L205.051 224.936C208.956 225.268 213.333 224.282 218.485 224.936H288.113C289.633 224.936 290.921 223.819 291.142 222.31L299.635 162.887C299.635 162.887 281.874 220.297 205.594 221.122Z" fill="#5FC8D7"/>
</g>
<path d="M237.786 237.807C246.34 237.807 250.144 233.732 249.329 228.438C248.514 223.145 244.509 190.299 244.509 190.299H261.033C261.757 190.299 262.391 190.782 262.572 191.477C264.142 197.394 271.116 223.739 271.83 228.438C272.645 233.732 268.842 237.807 260.288 237.807H237.776H237.786Z" fill="#38B7C1"/>
<path d="M238.068 237.807H221.394C220.367 237.807 219.532 236.972 219.532 235.946C219.532 234.919 220.367 234.084 221.394 234.084H238.068C241.893 234.084 244.801 233.148 246.26 231.437C247.206 230.33 247.558 228.922 247.296 227.241C246.522 222.189 243.01 193.59 242.859 192.372C242.738 191.356 243.462 190.43 244.479 190.299C245.485 190.179 246.421 190.893 246.552 191.92C246.592 192.211 250.205 221.676 250.97 226.667C251.392 229.425 250.738 231.91 249.078 233.852C247.538 235.654 244.368 237.797 238.058 237.797L238.068 237.807Z" fill="#B5E5EA"/>
<path d="M205.735 224.926C205.574 224.926 205.423 224.916 205.262 224.896C203.441 224.635 202.173 222.944 202.435 221.123L210.847 162.254C211.109 160.432 212.8 159.164 214.621 159.426C216.443 159.687 217.711 161.378 217.449 163.199L209.036 222.069C208.795 223.729 207.376 224.937 205.735 224.937V224.926Z" fill="#B5E5EA"/>
<path d="M211.059 345.291C211.059 345.291 213.625 351.037 217.882 352.939C222.139 354.84 230.048 355.263 231.96 355.585C233.872 355.907 229.465 361.915 221.414 361.834C214.259 361.472 210.073 360.275 210.073 360.275L212.357 365.024L209.65 365.88C209.65 365.88 202.857 358.483 202.254 354.84C201.65 351.198 202.113 347.917 202.113 347.917C202.113 347.917 206.279 342.795 211.069 345.301L211.059 345.291Z" fill="#F40043"/>
<path d="M217.892 352.949C213.635 351.047 211.069 345.301 211.069 345.301C208.775 344.103 206.621 344.657 205.001 345.562C204.357 346.216 203.954 346.84 204.025 347.364C204.025 347.364 207.185 348.108 208.775 350.966C210.365 353.814 212.73 356.038 218.284 356.551C223.829 357.064 227.824 356.521 226.727 354.991C223.759 354.609 220.257 354.015 217.882 352.949H217.892Z" fill="#FFD2C7"/>
<path d="M127.111 253.837C127.111 253.837 173.352 258.768 185.679 271.921C196.769 285.063 211.31 345.25 211.31 345.25L201.941 348.823C201.941 348.823 197.725 337.2 195.259 333.919C192.794 330.629 181.573 308.732 179.108 297.521C176.642 286.311 175.364 286.754 175.364 286.754C175.364 286.754 142.951 285.073 121.174 276.862C115.83 274.396 102.657 253.847 102.657 253.847C102.657 253.847 122.734 253.304 127.101 253.847L127.111 253.837Z" fill="#F9BE3D"/>
<g style="mix-blend-mode:multiply" opacity="0.5">
<path d="M179.108 297.511C180.316 303.026 183.647 311.127 187.018 318.322V273.702C186.565 273.038 186.122 272.434 185.679 271.911C183.445 269.526 180.094 267.423 176.119 265.561C175.485 266.316 175.053 266.879 174.952 267.02C174.73 267.352 175.364 277.788 176.049 287.438C176.663 288.485 177.689 291.081 179.098 297.511H179.108Z" fill="#F9BE3D"/>
</g>
<path d="M154.383 349.658C154.383 349.658 152.773 355.736 154.886 359.892C156.999 364.048 162.886 369.341 164.174 370.791C165.462 372.24 158.257 374.142 152.038 369.02C146.694 364.24 144.189 360.677 144.189 360.677L142.981 365.809L140.345 364.773C140.345 364.773 139.711 354.75 141.532 351.54C143.353 348.33 145.769 346.066 145.769 346.066C145.769 346.066 152.229 344.697 154.383 349.658Z" fill="#F40043"/>
<path d="M154.886 359.892C152.773 355.736 154.383 349.658 154.383 349.658C153.346 347.283 151.323 346.367 149.502 346.045C148.586 346.146 147.882 346.377 147.61 346.83C147.61 346.83 149.603 349.396 149.049 352.617C148.496 355.837 148.938 359.057 152.934 362.941C156.929 366.826 160.38 368.919 160.481 367.037C158.408 364.873 156.063 362.207 154.886 359.892Z" fill="#FFD2C7"/>
<path d="M75.0744 258.507C75.0744 258.507 67.2854 293.315 102.939 290.628C138.594 287.941 147.58 287.931 147.58 287.931C147.58 287.931 145.799 306.246 147.761 318.09C149.724 329.934 145.779 346.086 145.779 346.086L154.393 349.678C154.393 349.678 171.289 295.851 173.785 278.985C176.28 262.119 133.572 264.987 114.915 257.098C103.433 251.362 85.8421 253.505 75.0844 258.537L75.0744 258.507Z" fill="#FFCD50"/>
<path d="M111.553 125.261C116.384 126.529 119.745 130.947 119.805 135.938C119.896 143.666 120.872 156.185 125.904 161.357C133.431 169.086 137.496 174.449 134.679 180.689C131.851 186.928 126.477 197.132 130.412 203.069C134.347 209.006 133.441 228.82 125.038 232.715C116.635 236.619 86.4255 240.332 87.7237 214.762C89.0219 189.192 87.4721 190.721 80.5889 178.857C73.7157 166.983 76.5334 162.172 83.0443 153.579C89.5552 144.995 90.2697 141.775 88.891 135.475C87.774 130.343 99.3266 122.051 111.553 125.271V125.261Z" fill="#DB0043"/>
<path d="M141.25 170.635C140.888 166.459 140.435 162.303 139.378 158.057C139.63 155.772 139.167 153.337 138.654 151.123C138.191 149.1 137.708 147.038 137.134 145.035C136.219 141.815 132.666 138.524 129.064 138.977C129.104 141.503 130.181 143.365 130.875 145.689C131.267 147.007 131.801 151.496 131.267 152.029C130.744 152.552 130.08 151.636 129.023 150.711C127.967 149.785 124.404 148.99 124.797 149.785C125.189 150.58 127.433 151.767 129.023 154.535C130.603 157.302 134.347 158.982 134.347 158.982C134.689 162.746 134.528 166.751 134.246 170.696C133.954 174.651 133.491 178.616 132.898 182.54C132.304 186.465 131.569 190.359 130.664 194.143C130.291 195.683 129.879 197.182 129.446 198.641C128.299 196.296 127.202 193.771 126.155 191.245C124.424 187.028 122.784 182.661 121.224 178.273C119.443 173.242 113.828 170.716 108.877 172.729C103.724 174.832 101.531 180.94 104.167 185.841C106.502 190.168 108.917 194.425 111.503 198.722C113.737 202.364 115.991 205.957 118.88 209.67C119.634 210.616 120.389 211.542 121.345 212.548C121.597 212.8 121.808 213.041 122.08 213.303L122.955 214.108C123.217 214.36 123.67 214.702 124.032 214.973C124.354 215.235 124.928 215.607 125.491 215.919C125.894 216.151 126.94 216.724 128.269 216.966C128.893 217.097 129.597 217.137 130.301 217.107C130.996 217.077 131.66 216.926 132.294 216.745C133.481 216.362 134.437 215.768 135.071 215.245C135.403 214.973 135.715 214.692 135.937 214.46C136.178 214.209 136.42 213.947 136.581 213.726C137.326 212.78 137.748 211.995 138.1 211.27C138.453 210.536 138.704 209.882 138.936 209.238C139.791 206.712 140.204 204.498 140.556 202.284C140.898 200.09 141.129 197.947 141.301 195.813C141.643 191.557 141.763 187.37 141.753 183.184C141.733 178.998 141.582 174.832 141.24 170.666L141.25 170.635Z" fill="#FFD2C7"/>
<g style="mix-blend-mode:multiply" opacity="0.5">
<path d="M132.294 216.714C133.481 216.332 134.437 215.738 135.071 215.215C135.403 214.943 135.715 214.661 135.937 214.43C136.178 214.178 136.42 213.917 136.581 213.695C137.325 212.749 137.748 211.964 138.1 211.24C138.452 210.505 138.704 209.851 138.935 209.207C139.791 206.681 140.203 204.467 140.556 202.254C140.898 200.06 141.129 197.916 141.3 195.783C141.643 191.526 141.763 187.34 141.753 183.154C141.753 182.047 141.733 180.94 141.703 179.833C140.455 183.456 138.151 186.374 136.742 187.008C135.554 187.541 133.783 186.444 132.435 185.277C131.931 188.266 131.338 191.224 130.643 194.113C130.271 195.652 129.858 197.152 129.426 198.611C128.279 196.266 127.182 193.74 126.135 191.214C125.4 189.423 124.686 187.592 123.992 185.76C120.963 186.857 117.974 187.954 117.571 188.145C116.736 188.538 115.871 202.656 115.74 203.642C115.71 203.844 115.79 204.578 115.921 205.605C116.837 206.943 117.803 208.281 118.859 209.64C119.614 210.586 120.369 211.512 121.325 212.518C121.576 212.769 121.788 213.011 122.059 213.273L122.935 214.078C123.197 214.329 123.649 214.671 124.012 214.943C124.334 215.205 124.907 215.577 125.471 215.889C125.873 216.121 126.92 216.694 128.248 216.936C128.872 217.066 129.577 217.107 130.281 217.077C130.975 217.046 131.64 216.895 132.274 216.714H132.294Z" fill="#FFD2C7"/>
</g>
<path d="M112.761 165.916C103.885 163.108 88.3778 162.444 80.458 167.657C71.0388 173.866 71.8137 185.197 75.4365 194.576C79.502 205.112 85.6305 217.57 83.6883 229.142C80.8203 246.3 75.0742 258.506 75.0742 258.506C75.0742 258.506 105.515 261.696 127.111 253.837C124.062 245.042 123.348 234.919 123.116 225.691C122.985 220.629 123.056 215.406 124.102 210.435C125.35 204.548 130.352 200.744 132.354 195.22C135.293 187.099 129.778 180.487 123.881 175.677C121.808 173.987 119.685 172.366 117.652 170.636C116.454 169.609 114.14 166.359 112.761 165.926V165.916Z" fill="#9449EA"/>
<g style="mix-blend-mode:multiply" opacity="0.5">
<path d="M123.136 226.405C116.484 223.708 105.687 218.636 102.466 214.058C97.948 207.627 85.0972 211.461 85.0972 211.461C85.0972 211.461 84.3827 213.766 83.2858 217.318C84.0708 221.293 84.3425 225.268 83.6884 229.152C80.8203 246.31 75.0742 258.516 75.0742 258.516C75.0742 258.516 76.6642 258.677 79.3612 258.848C82.6217 255.86 91.91 246.964 93.7315 241.188C95.9454 234.154 107.8 234.013 114.623 234.184C117.732 234.264 121.023 234.878 123.609 235.462C123.358 232.413 123.217 229.374 123.136 226.415V226.405Z" fill="#9449EA"/>
</g>
<path d="M124.022 145.176C123.146 143.505 121.878 139.873 122.563 133.533C123.78 122.212 113.425 113.719 102.396 116.204C99.075 116.949 96.6095 118.499 94.8082 120.562C90.159 125.905 89.9678 134.68 90.8332 141.875C92.866 158.882 111.966 159.637 114.854 159.355C117.742 159.063 118.195 150.127 119.835 149.261C120.832 148.738 122.522 148.175 123.589 147.289C124.213 146.776 124.404 145.9 124.032 145.176H124.022Z" fill="#FFD2C7"/>
<path d="M197.876 232.786C195.732 231.075 189.312 227.432 187.169 228.076C185.025 228.72 178.202 230.038 178.202 230.038C168.109 228.126 157.995 226.063 147.992 223.819C142.991 222.692 138.01 221.525 133.089 220.267C128.198 218.999 123.277 217.651 118.809 216.071C117.702 215.678 116.635 215.256 115.71 214.833C115.247 214.622 114.834 214.41 114.512 214.219C114.22 214.038 114.019 213.867 114.23 213.937C114.401 213.998 114.27 213.837 114.109 213.575C113.948 213.324 113.727 212.991 113.496 212.599C113.033 211.834 112.519 210.908 112.026 209.922C110.024 205.947 108.182 201.328 106.471 196.709C104.459 191.215 102.557 185.529 100.786 179.834C98.8134 173.494 91.9502 170.093 85.7312 172.407C79.2504 174.822 76.3522 182.339 79.4919 188.498C79.9448 189.383 80.4077 190.279 80.8605 191.165C83.3059 195.874 85.8217 200.543 88.5086 205.213C91.2257 209.882 94.0031 214.491 97.5051 219.221C98.4008 220.408 99.3467 221.605 100.474 222.863C101.037 223.487 101.651 224.141 102.376 224.816C103.1 225.49 103.925 226.214 105.143 227.009C106.411 227.814 107.377 228.197 108.263 228.539C109.128 228.861 109.913 229.102 110.678 229.314C112.187 229.736 113.596 230.038 114.975 230.31C120.469 231.357 125.672 231.95 130.915 232.504C136.138 233.037 141.331 233.46 146.523 233.832C156.898 234.567 167.233 235.1 177.598 235.493C182.439 238.129 189.201 233.671 189.201 233.671C189.201 233.671 193.861 234.768 195.229 235.493C196.598 236.217 201.499 235.493 201.499 235.493C201.499 235.493 199.999 234.486 197.856 232.776L197.876 232.786Z" fill="#FFD2C7"/>
<path d="M95.5731 151.003C95.2913 152.603 95.573 161.77 92.7151 166.741C95.7341 169.599 101.46 175.325 109.249 175.647C117.038 175.969 107.498 166.741 104.318 165.473C103.523 162.927 102.859 156.567 102.476 153.548C102.094 150.53 95.5731 151.003 95.5731 151.003Z" fill="#FFD2C7"/>
<g style="mix-blend-mode:multiply" opacity="0.5">
<path d="M110.758 226.304C105.284 223.487 99.1554 216.865 99.3567 211.451C99.5177 207.114 105.425 201.982 107.77 200.11C107.337 198.983 106.904 197.846 106.481 196.719C105.576 194.254 104.7 191.738 103.845 189.212C100.212 188.97 96.1868 188.93 95.744 188.93C95.2509 188.93 89.0821 193.459 84.1914 197.433C85.6003 200.04 87.0393 202.626 88.5287 205.222C91.2457 209.892 94.0232 214.5 97.5252 219.23C98.4208 220.418 99.3668 221.615 100.494 222.873C101.057 223.497 101.671 224.151 102.396 224.825C103.12 225.499 103.946 226.224 105.163 227.019C106.431 227.824 107.397 228.206 108.283 228.549C109.148 228.871 109.933 229.112 110.698 229.323C112.207 229.746 113.616 230.048 114.995 230.32C120.49 231.366 125.692 231.96 130.935 232.513C136.158 233.047 141.351 233.469 146.543 233.842C148.204 233.962 149.874 234.063 151.535 234.174C149.562 233.892 116.082 229.042 110.768 226.304H110.758Z" fill="#FFD2C7"/>
</g>
<path d="M83.1851 170.555C102.778 164.829 106.522 187.511 108.726 195.209C102.557 201.157 86.7072 206.218 86.7072 206.218C86.7072 206.218 66.9229 181.393 83.1851 170.555Z" fill="#9E5AFF"/>
<g style="mix-blend-mode:multiply" opacity="0.5">
<path d="M108.273 195.623C105.959 196.468 102.517 197.585 100.222 197.776C96.4789 198.088 95.7343 192.805 91.3064 185.972C87.5227 180.146 89.5454 172.427 90.2297 169.69C88.1365 169.539 85.8018 169.781 83.1753 170.555C66.9131 181.393 86.6975 206.219 86.6975 206.219C86.6975 206.219 101.823 201.389 108.263 195.623H108.273Z" fill="#9449EA"/>
</g>
<path d="M124.767 127.163C124.767 127.163 120.721 133.412 108.464 134.851C105.818 136.773 106.542 139.893 105.586 143.495C104.63 147.098 103.956 148.155 102.477 147.561C100.997 146.967 101.39 142.419 100.796 140.336C100.202 138.263 96.6399 138.454 95.8449 140.628C95.0499 142.801 95.2512 148.346 98.8136 149.533C100.987 150.62 102.889 160.764 96.3179 163.773C89.7466 166.781 78.1034 172.306 83.0847 183.325C88.066 194.354 96.6399 203.995 92.7152 211.441C88.7805 218.888 81.3136 221.434 85.5804 227.985C89.8472 234.536 91.2863 243.945 79.3613 247.075C67.4364 250.194 33.644 238.612 43.6066 207.95C49.6546 191.869 51.0736 185.74 47.5212 175.637C43.9689 165.534 56.0549 157.362 64.2363 150.962C72.4177 144.552 72.3875 138.152 74.3599 124.989C76.3323 111.827 89.1327 103.293 98.7431 107.208C108.343 111.123 110.125 106.01 117.592 106.252C125.059 106.494 133.371 118.992 124.767 127.153V127.163Z" fill="#D50043"/>
<g style="mix-blend-mode:multiply" opacity="0.5">
<path d="M124.766 127.163C127.323 124.738 128.379 121.931 128.409 119.173C125.4 122.404 117.159 129.82 106.079 127.968C92.0207 125.604 85.5601 136.633 86.0331 144.19C86.506 151.748 85.4293 158.51 76.7548 163.783C68.0802 169.066 71.9445 180.83 73.9974 186.163C76.0503 191.497 73.5848 199.487 62.9279 198.46C55.2396 197.726 51.0734 194.626 48.9702 190.732C48.1852 195.27 46.3839 200.564 43.5964 207.97C33.6338 238.642 67.4261 250.225 79.3511 247.095C91.276 243.976 89.837 234.567 85.5702 228.006C81.3033 221.455 88.7703 218.909 92.705 211.462C96.6397 204.015 88.0558 194.365 83.0745 183.346C78.0932 172.317 89.7363 166.802 96.3076 163.793C102.879 160.784 100.977 150.641 98.8033 149.554C95.2409 148.366 95.0397 142.832 95.8347 140.648C96.6297 138.464 100.192 138.273 100.786 140.356C101.38 142.429 100.987 146.988 102.466 147.581C103.946 148.175 104.62 147.119 105.576 143.516C106.532 139.913 105.817 136.794 108.454 134.872C120.701 133.433 124.756 127.184 124.756 127.184L124.766 127.163Z" fill="#D50043"/>
</g>
<path d="M110.245 159.314C110.245 159.314 110.205 159.314 110.185 159.314C105.807 158.801 100.584 149.261 100.363 148.849C100.232 148.597 100.323 148.285 100.574 148.154C100.816 148.024 101.138 148.114 101.269 148.366C102.698 151.002 107.105 157.926 110.305 158.298C110.587 158.328 110.788 158.59 110.758 158.872C110.728 159.133 110.507 159.324 110.245 159.324V159.314Z" fill="#46A8D3"/>
<path d="M113.697 158.178C113.868 158.983 113.123 159.818 112.037 160.049C110.95 160.281 109.933 159.818 109.762 159.013C109.591 158.208 110.336 157.373 111.423 157.141C112.51 156.91 113.526 157.373 113.697 158.178Z" fill="#46A8D3"/>
<path d="M100.102 135.314H95.9053C93.3654 135.314 91.3064 137.373 91.3064 139.913V146.947C91.3064 149.487 93.3654 151.546 95.9053 151.546H100.102C102.642 151.546 104.701 149.487 104.701 146.947V139.913C104.701 137.373 102.642 135.314 100.102 135.314Z" fill="#74C0EB"/>
<path d="M99.8299 127.968C99.8802 121.578 99.9205 114.956 101.802 109.2C101.983 108.657 102.215 108.194 102.426 107.872C102.477 108.003 102.527 108.194 102.577 108.415C102.577 108.415 105.083 108.918 106.743 108.596C106.743 108.536 106.743 108.486 106.743 108.425C106.492 106.453 105.848 105.084 104.761 104.239C103.755 103.454 102.587 103.213 101.48 103.555C99.3167 104.219 98.26 106.825 97.8978 107.922C95.8147 114.292 95.7644 121.538 95.7241 127.938V129.668C95.6637 134.609 95.7442 139.138 95.9555 143.535C96.0059 144.632 96.9216 145.488 98.0085 145.488C98.0386 145.488 98.0789 145.488 98.1091 145.488C99.2462 145.437 100.122 144.471 100.061 143.334C99.85 139.027 99.7695 134.569 99.8198 129.709V127.968H99.8299Z" fill="#46A8D3"/>
<g style="mix-blend-mode:multiply" opacity="0.5">
<path d="M151.525 284.178C148.043 284.59 135.575 284.862 135.575 284.862C135.575 284.862 106.562 285.949 91.5077 282.9C76.453 279.84 79.3613 258.839 79.3613 258.839C79.2708 258.195 79.0494 257.591 78.7273 257.027C77.4493 257.49 76.2115 257.983 75.0744 258.517C75.0744 258.517 67.2854 293.325 102.939 290.638C138.594 287.951 147.58 287.941 147.58 287.941C147.58 287.941 145.799 306.256 147.761 318.1C149.723 329.944 145.779 346.096 145.779 346.096L145.819 346.116C146.403 345.13 151.646 331.645 150.639 324.601C149.552 316.963 149.985 300.379 151.525 292.53C153.064 284.671 155.007 283.805 151.525 284.208V284.178Z" fill="#FFCD50"/>
</g>
<path d="M173.885 249.118H163.46L169.981 396.139H173.885H177.8L184.311 249.118H173.885Z" fill="#BBA4A0"/>
<path d="M315.234 249.118H304.818L311.329 396.139H315.234H319.148L325.659 249.118H315.234Z" fill="#BBA4A0"/>
<path d="M235.462 249.118H225.047L231.558 396.139H235.462H239.377L245.888 249.118H235.462Z" fill="#BBA4A0"/>
<path d="M375.965 249.118H365.54L372.061 396.139H375.965H379.87L386.391 249.118H375.965Z" fill="#BBA4A0"/>
<path d="M305.17 199.416H296.405V238.159H305.17V199.416Z" fill="#8DC63F"/>
<path d="M313.935 199.416H305.17V238.159H313.935V199.416Z" fill="#009899"/>
<path d="M322.69 199.416H313.925V238.159H322.69V199.416Z" fill="#D50043"/>
<path d="M331.456 199.416H322.69V238.159H331.456V199.416Z" fill="#FFCD50"/>
<g style="mix-blend-mode:multiply" opacity="0.5">
<path d="M299.968 227.16V199.416H296.405V238.159H305.17V232.373C302.302 232.373 299.968 230.048 299.968 227.17V227.16Z" fill="#8DC63F"/>
</g>
<g style="mix-blend-mode:multiply" opacity="0.5">
<path d="M308.723 227.16V199.416H305.16V238.159H313.925V232.373C311.057 232.373 308.723 230.048 308.723 227.17V227.16Z" fill="#009899"/>
</g>
<g style="mix-blend-mode:multiply" opacity="0.5">
<path d="M317.488 227.16V199.416H313.925V238.159H322.69V232.373C319.822 232.373 317.488 230.048 317.488 227.17V227.16Z" fill="#D50043"/>
</g>
<g style="mix-blend-mode:multiply" opacity="0.5">
<path d="M326.253 227.16V199.416H322.69V238.159H331.456V232.373C328.587 232.373 326.253 230.048 326.253 227.17V227.16Z" fill="#FFCD50"/>
</g>
<path d="M395.709 236.901H153.87C150.498 236.901 147.761 239.638 147.761 243.009C147.761 246.38 150.498 249.117 153.87 249.117H395.709C399.081 249.117 401.818 246.38 401.818 243.009C401.818 239.638 399.081 236.901 395.709 236.901Z" fill="#877F7D"/>
<g style="mix-blend-mode:multiply" opacity="0.5">
<path d="M398.426 245.364H156.587C153.216 245.364 150.478 242.627 150.478 239.256C150.478 238.763 150.549 238.28 150.659 237.817C148.919 238.894 147.761 240.816 147.761 243.009C147.761 246.381 150.498 249.118 153.87 249.118H395.709C398.587 249.118 400.993 247.125 401.637 244.448C400.701 245.032 399.604 245.364 398.426 245.364Z" fill="#877F7D"/>
</g>
<g style="mix-blend-mode:multiply" opacity="0.5">
<path d="M163.46 249.118L165.452 291.946C165.452 291.946 166.026 266.537 184.301 249.118H163.46Z" fill="#BBA4A0"/>
</g>
<g style="mix-blend-mode:multiply" opacity="0.5">
<path d="M225.047 249.118L227.039 291.946C227.039 291.946 227.613 266.537 245.888 249.118H225.047Z" fill="#BBA4A0"/>
</g>
<g style="mix-blend-mode:multiply" opacity="0.5">
<path d="M304.818 249.118L306.811 291.946C306.811 291.946 307.384 266.537 325.659 249.118H304.818Z" fill="#BBA4A0"/>
</g>
<g style="mix-blend-mode:multiply" opacity="0.5">
<path d="M365.54 249.118L367.532 291.946C367.532 291.946 368.106 266.537 386.381 249.118H365.54Z" fill="#BBA4A0"/>
</g>
<path d="M368.538 208.483C367.763 210.415 367.15 212.458 366.697 214.501C366.234 216.543 365.962 218.617 365.912 220.669C365.902 221.263 365.419 221.716 364.845 221.706C364.272 221.696 363.809 221.213 363.829 220.639C363.829 220.609 363.829 220.579 363.829 220.549C364.07 218.335 364.543 216.181 365.197 214.098C365.851 212.015 366.636 210.002 367.613 208.04C367.743 207.789 368.045 207.688 368.297 207.809C368.538 207.93 368.639 208.211 368.548 208.453V208.473L368.538 208.483Z" fill="#009899"/>
<path d="M353.504 206.752C354.279 208.684 354.893 210.727 355.345 212.77C355.808 214.813 356.08 216.886 356.13 218.938C356.14 219.532 356.624 219.985 357.197 219.975C357.771 219.965 358.234 219.482 358.213 218.908C358.213 218.878 358.213 218.848 358.213 218.818C357.972 216.604 357.499 214.45 356.845 212.367C356.191 210.284 355.406 208.272 354.43 206.309C354.299 206.058 353.997 205.957 353.745 206.078C353.504 206.199 353.403 206.48 353.494 206.722V206.742L353.504 206.752Z" fill="#009899"/>
<path d="M383.825 170.877C383.885 173.635 381.289 175.959 381.49 178.706C381.721 181.796 383.915 183.547 384.187 186.636C384.539 190.772 380.302 193.409 379.759 197.524C379.145 202.174 384.479 207.195 378.411 210.465C373.178 213.283 364.07 211.522 360.206 207.014C354.068 199.849 364.121 196.729 364.262 190.299C364.352 186.203 361.937 183.647 365.499 180.115C368.398 177.247 371.225 176.533 371.869 172.075C372.342 168.784 373.832 165.956 377.485 165.765C380.494 165.604 383.744 167.637 383.814 170.877H383.825Z" fill="#008783"/>
<path d="M375.764 181.514C377.807 175.043 379.356 170.495 379.397 170.384C379.487 170.112 379.346 169.821 379.075 169.73C378.803 169.639 378.511 169.78 378.421 170.052C378.38 170.173 376.74 174.993 374.607 181.765C374.607 181.765 374.607 181.776 374.607 181.786C374.607 181.786 374.607 181.786 374.607 181.796C373.862 184.14 373.067 186.717 372.252 189.423C370.772 188.83 366.294 186.807 363.688 183.124C363.567 183.647 363.547 184.16 363.567 184.674C366.425 188.075 370.581 189.886 371.95 190.41C371.245 192.774 370.531 195.21 369.837 197.665C369.837 197.665 369.837 197.685 369.837 197.695C369.193 199.97 368.569 202.244 367.995 204.478C366.506 204.085 361.826 202.646 359.119 199.587C358.938 199.919 358.767 200.251 358.636 200.594C361.575 203.673 366.184 205.082 367.733 205.474C367.26 207.326 366.818 209.117 366.425 210.848C366.747 210.958 367.079 211.049 367.411 211.14C368.317 207.195 369.464 202.848 370.682 198.51C371.809 198.873 374.597 199.648 378.048 199.648C378.632 199.648 379.226 199.627 379.839 199.577C379.779 199.225 379.749 198.883 379.739 198.541C375.643 198.853 372.151 197.897 370.964 197.524C372.473 192.201 374.083 186.948 375.482 182.49C376.166 182.621 377.545 182.832 379.316 182.832C380.363 182.832 381.54 182.752 382.788 182.54C382.627 182.218 382.466 181.896 382.315 181.564C379.356 182.007 376.841 181.675 375.784 181.494L375.764 181.514Z" fill="#12C4BF"/>
<path d="M340.412 174.842C340.361 177.157 342.545 179.119 342.374 181.423C342.183 184.02 340.331 185.499 340.11 188.095C339.808 191.577 343.38 193.791 343.833 197.253C344.346 201.167 339.868 205.394 344.97 208.141C349.368 210.516 357.026 209.026 360.276 205.233C365.439 199.205 356.986 196.578 356.865 191.174C356.784 187.733 358.817 185.579 355.818 182.611C353.383 180.196 350.998 179.602 350.455 175.848C350.052 173.081 348.804 170.706 345.735 170.545C343.199 170.414 340.472 172.115 340.412 174.842Z" fill="#009899"/>
<path d="M347.184 183.788C345.463 178.344 344.165 174.52 344.125 174.419C344.044 174.198 344.165 173.946 344.397 173.876C344.618 173.795 344.87 173.916 344.95 174.148C344.98 174.248 346.359 178.304 348.16 183.999C348.16 183.999 348.16 184.01 348.16 184.02C348.16 184.02 348.16 184.02 348.16 184.03C348.784 186.002 349.458 188.176 350.143 190.45C351.381 189.957 355.154 188.246 357.338 185.147C357.439 185.579 357.459 186.012 357.439 186.455C355.033 189.313 351.542 190.832 350.394 191.285C350.988 193.278 351.592 195.331 352.176 197.393V197.414C352.719 199.326 353.242 201.238 353.725 203.119C354.973 202.787 358.918 201.58 361.192 199.004C361.353 199.285 361.484 199.567 361.595 199.849C359.129 202.445 355.245 203.622 353.937 203.955C354.339 205.504 354.701 207.024 355.044 208.473C354.772 208.563 354.49 208.644 354.218 208.724C353.454 205.404 352.498 201.751 351.471 198.098C350.525 198.41 348.17 199.054 345.272 199.054C344.779 199.054 344.276 199.034 343.763 198.993C343.813 198.702 343.843 198.41 343.853 198.118C347.295 198.38 350.233 197.585 351.24 197.263C349.972 192.785 348.623 188.367 347.436 184.623C346.862 184.734 345.705 184.915 344.215 184.915C343.34 184.915 342.344 184.845 341.287 184.674C341.428 184.402 341.559 184.13 341.68 183.859C344.165 184.231 346.289 183.959 347.174 183.798L347.184 183.788Z" fill="#12C4BF"/>
<path d="M379.94 216.322H341.227L348.221 236.901H372.946L379.94 216.322Z" fill="#9449EA"/>
<g style="mix-blend-mode:multiply" opacity="0.5">
<path d="M348.221 236.902H372.946L374.426 232.534C351.552 232.836 346.339 221.314 345.162 216.312H341.227L348.221 236.902Z" fill="#9449EA"/>
</g>
<path d="M106.824 316.893H99.9907V341.517H106.824V316.893Z" fill="#917470"/>
<path d="M96.0256 339.333V375.52C96.0256 379.595 99.3264 382.896 103.402 382.896C107.478 382.896 110.778 379.595 110.778 375.52V339.333H96.0256Z" fill="#AD938E"/>
<g style="mix-blend-mode:multiply" opacity="0.5">
<path d="M110.789 352.687C108.877 359.137 104.771 366.836 96.0361 369.211V375.52C96.0361 379.596 99.3369 382.896 103.412 382.896C107.488 382.896 110.789 379.596 110.789 375.52V352.687Z" fill="#AD938E"/>
</g>
<path d="M157.372 390.192C157.372 393.573 154.624 396.32 151.243 396.32C147.862 396.32 145.115 393.573 145.115 390.192C145.115 386.811 147.862 384.063 151.243 384.063C154.624 384.063 157.372 386.811 157.372 390.192Z" fill="#594A42"/>
<path d="M152.913 375.269H149.583V388.039H152.913V375.269Z" fill="#917470"/>
<path d="M132.435 390.192C132.435 393.573 129.687 396.32 126.306 396.32C122.925 396.32 120.178 393.573 120.178 390.192C120.178 386.811 122.925 384.063 126.306 384.063C129.687 384.063 132.435 386.811 132.435 390.192Z" fill="#594A42"/>
<path d="M127.977 375.269H124.646V388.039H127.977V375.269Z" fill="#917470"/>
<path d="M49.4431 390.192C49.4431 393.573 52.1904 396.32 55.5716 396.32C58.9529 396.32 61.7001 393.573 61.7001 390.192C61.7001 386.811 58.9529 384.063 55.5716 384.063C52.1904 384.063 49.4431 386.811 49.4431 390.192Z" fill="#594A42"/>
<path d="M53.9012 388.039H57.2322V375.269H53.9012V388.039Z" fill="#917470"/>
<path d="M74.3796 390.192C74.3796 393.573 77.1269 396.32 80.5081 396.32C83.8894 396.32 86.6367 393.573 86.6367 390.192C86.6367 386.811 83.8894 384.063 80.5081 384.063C77.1269 384.063 74.3796 386.811 74.3796 390.192Z" fill="#594A42"/>
<path d="M78.8378 388.039H82.1687V375.269H78.8378V388.039Z" fill="#917470"/>
<path d="M79.7737 307.403V309.778C79.7737 313.712 82.9637 316.892 86.8884 316.892H119.926C123.861 316.892 127.041 313.702 127.041 309.778V307.403H79.7737Z" fill="#BB4738"/>
<path d="M110.778 316.893H96.0256V321.27H110.778V316.893Z" fill="#AD938E"/>
<path d="M157.039 376.536H49.7753C48.5979 376.536 47.6318 375.58 47.6318 374.393C47.6318 373.216 48.5878 372.25 49.7753 372.25H157.029C158.207 372.25 159.173 373.206 159.173 374.393C159.173 375.57 158.217 376.536 157.029 376.536H157.039Z" fill="#C9ADA9"/>
<path d="M152.964 305.682C151.696 305.682 150.669 304.655 150.669 303.387C150.669 259.049 137.738 255.608 133.783 255.608H41.2417C39.9737 255.608 38.9473 254.581 38.9473 253.313C38.9473 252.045 39.9737 251.019 41.2417 251.019H133.783C141.804 251.019 155.268 257.822 155.268 303.387C155.268 304.655 154.242 305.682 152.974 305.682H152.964Z" fill="#E6E7E8"/>
<path d="M65.4032 247.356H123.669C125.712 247.356 127.373 249.017 127.373 251.06V254.924C127.373 256.967 125.712 258.627 123.669 258.627H65.4032C63.3604 258.627 61.7 256.967 61.7 254.924V251.06C61.7 249.017 63.3604 247.356 65.4032 247.356Z" fill="#BBA4A0"/>
<g style="mix-blend-mode:multiply" opacity="0.5">
<path d="M126.246 254.803H68.1304C66.0373 254.803 64.3466 253.113 64.3466 251.02V247.548C62.807 248.031 61.6899 249.45 61.6899 251.14V254.844C61.6899 256.937 63.3806 258.627 65.4737 258.627H123.589C125.682 258.627 127.373 256.937 127.373 254.844V254.612C127.01 254.723 126.638 254.803 126.246 254.803Z" fill="#BBA4A0"/>
</g>
<path d="M151.243 381.931C146.684 381.931 142.991 385.624 142.991 390.182H159.505C159.505 385.624 155.811 381.931 151.253 381.931H151.243Z" fill="#AD938E"/>
<path d="M126.306 381.931C121.747 381.931 118.054 385.624 118.054 390.182H134.568C134.568 385.624 130.875 381.931 126.316 381.931H126.306Z" fill="#AD938E"/>
<path d="M55.5717 381.931C60.1304 381.931 63.8236 385.624 63.8236 390.182H47.3098C47.3098 385.624 51.003 381.931 55.5617 381.931H55.5717Z" fill="#AD938E"/>
<path d="M80.5083 381.931C85.0669 381.931 88.7601 385.624 88.7601 390.182H72.2463C72.2463 385.624 75.9395 381.931 80.4982 381.931H80.5083Z" fill="#AD938E"/>
<path d="M168.914 310.271H81.6958C55.1691 310.271 33.5835 288.686 33.5835 262.159V188.075C33.5835 183.849 37.0151 180.417 41.2416 180.417C45.4682 180.417 48.8997 183.849 48.8997 188.075V262.159C48.8997 280.243 63.6122 294.955 81.6958 294.955H168.914C173.141 294.955 176.572 298.387 176.572 302.613C176.572 306.84 173.141 310.271 168.914 310.271Z" fill="#F16680"/>
<g style="mix-blend-mode:multiply">
<path d="M170.665 303.378H83.4465C56.9198 303.378 35.3342 281.792 35.3342 255.266V183.214C34.2474 184.533 33.5933 186.233 33.5933 188.075V262.159C33.5933 288.686 55.1789 310.271 81.7056 310.271H168.924C173.15 310.271 176.582 306.839 176.582 302.613C176.582 301.999 176.501 301.405 176.36 300.822C174.962 302.381 172.929 303.368 170.665 303.368V303.378Z" fill="#F16680"/>
</g>
<path d="M224.644 71.3431H159.454C149.683 71.3431 141.763 79.2627 141.763 89.034V113.96C141.763 123.732 149.683 131.651 159.454 131.651H164.677C167.575 131.651 169.669 134.449 168.833 137.226C168.38 138.715 167.636 140.215 166.398 141.432C165.593 142.238 166.277 143.586 167.394 143.405C172.577 142.57 179.812 140.315 182.197 134.237C182.821 132.637 184.441 131.641 186.162 131.641H224.634C234.405 131.641 242.325 123.721 242.325 113.95V89.0239C242.325 79.2527 234.405 71.333 224.634 71.333L224.644 71.3431Z" fill="#5FC8D7"/>
<path d="M415.302 31.473C415.302 34.663 412.716 37.2492 409.526 37.2492C406.336 37.2492 403.75 34.663 403.75 31.473C403.75 28.283 406.336 25.6968 409.526 25.6968C412.716 25.6968 415.302 28.283 415.302 31.473Z" fill="#9449EA"/>
<path d="M66.0677 74.1604C66.0677 76.5755 64.1154 78.5277 61.7002 78.5277C59.285 78.5277 57.3328 76.5755 57.3328 74.1604C57.3328 71.7452 59.285 69.793 61.7002 69.793C64.1154 69.793 66.0677 71.7452 66.0677 74.1604Z" fill="#F16680"/>
<path d="M439.424 163.762C439.424 166.178 437.472 168.13 435.056 168.13C432.641 168.13 430.689 166.178 430.689 163.762C430.689 161.347 432.641 159.395 435.056 159.395C437.472 159.395 439.424 161.347 439.424 163.762Z" fill="#9449EA"/>
<path d="M255.106 72.1582C258.846 72.1582 261.878 69.1261 261.878 65.3857C261.878 61.6454 258.846 58.6133 255.106 58.6133C251.365 58.6133 248.333 61.6454 248.333 65.3857C248.333 69.1261 251.365 72.1582 255.106 72.1582Z" fill="#5FC8D7"/>
<path d="M412.243 187.34H410.804C409.949 187.34 409.264 186.646 409.264 185.801V184.362C409.264 183.828 408.862 183.345 408.329 183.325C407.765 183.295 407.292 183.748 407.292 184.311V185.811C407.292 186.666 406.598 187.35 405.752 187.35H404.313C403.78 187.35 403.297 187.753 403.277 188.286C403.247 188.85 403.699 189.323 404.263 189.323H405.762C406.618 189.323 407.302 190.017 407.302 190.862V192.301C407.302 192.835 407.705 193.318 408.238 193.338C408.802 193.368 409.275 192.915 409.275 192.352V190.852C409.275 189.997 409.969 189.313 410.814 189.313H412.314C412.877 189.313 413.33 188.84 413.3 188.276C413.27 187.743 412.797 187.34 412.263 187.34H412.243Z" fill="white"/>
<path d="M252.62 137.94H251.181C250.326 137.94 249.641 137.246 249.641 136.401V134.962C249.641 134.428 249.239 133.945 248.706 133.925C248.142 133.895 247.669 134.348 247.669 134.911V136.411C247.669 137.266 246.975 137.95 246.129 137.95H244.69C244.157 137.95 243.674 138.353 243.654 138.886C243.624 139.45 244.076 139.923 244.64 139.923H246.139C246.995 139.923 247.679 140.617 247.679 141.463V142.902C247.679 143.435 248.082 143.918 248.615 143.938C249.178 143.968 249.651 143.515 249.651 142.952V141.452C249.651 140.597 250.346 139.913 251.191 139.913H252.691C253.254 139.913 253.707 139.44 253.677 138.876C253.647 138.343 253.174 137.94 252.64 137.94H252.62Z" fill="#9449EA"/>
<path d="M136.41 57.6367H134.971C134.115 57.6367 133.431 56.9424 133.431 56.0971V54.658C133.431 54.1247 133.028 53.6417 132.495 53.6215C131.932 53.5914 131.459 54.0442 131.459 54.6077V56.1071C131.459 56.9625 130.764 57.6468 129.919 57.6468H128.48C127.946 57.6468 127.463 58.0493 127.443 58.5826C127.413 59.1462 127.866 59.6191 128.43 59.6191H129.929C130.784 59.6191 131.469 60.3135 131.469 61.1588V62.5978C131.469 63.1312 131.871 63.6142 132.405 63.6343C132.968 63.6645 133.441 63.2117 133.441 62.6481V61.1487C133.441 60.2934 134.135 59.6091 134.981 59.6091H136.48C137.044 59.6091 137.497 59.1361 137.466 58.5726C137.436 58.0392 136.963 57.6367 136.43 57.6367H136.41Z" fill="white"/>
<path d="M158.136 14.1748H156.697C155.842 14.1748 155.158 13.4804 155.158 12.6351V11.1961C155.158 10.6628 154.755 10.1798 154.222 10.1596C153.658 10.1294 153.185 10.5823 153.185 11.1458V12.6452C153.185 13.5006 152.491 14.1849 151.645 14.1849H150.206C149.673 14.1849 149.19 14.5874 149.17 15.1207C149.14 15.6843 149.593 16.1572 150.156 16.1572H151.656C152.511 16.1572 153.195 16.8516 153.195 17.6969V19.1359C153.195 19.6692 153.598 20.1523 154.131 20.1724C154.695 20.2026 155.168 19.7498 155.168 19.1862V17.6868C155.168 16.8315 155.862 16.1472 156.707 16.1472H158.207C158.77 16.1472 159.223 15.6742 159.193 15.1107C159.163 14.5773 158.69 14.1748 158.156 14.1748H158.136Z" fill="#F16680"/>
<path d="M441.688 108.395H439.283C437.854 108.395 436.707 107.238 436.707 105.819V103.414C436.707 102.519 436.043 101.724 435.147 101.673C434.201 101.623 433.416 102.378 433.416 103.314V105.809C433.416 107.238 432.259 108.385 430.84 108.385H428.435C427.539 108.385 426.744 109.05 426.694 109.945C426.644 110.891 427.398 111.686 428.334 111.686H430.83C432.259 111.686 433.406 112.843 433.406 114.262V116.667C433.406 117.563 434.07 118.358 434.966 118.408C435.912 118.459 436.697 117.704 436.697 116.768V114.272C436.697 112.843 437.854 111.696 439.273 111.696H441.769C442.705 111.696 443.459 110.911 443.409 109.955C443.359 109.06 442.564 108.395 441.668 108.395H441.688Z" fill="#5FC8D7"/>
</svg>
