<svg width="21" height="21" viewBox="0 0 21 21" fill="none" xmlns="http://www.w3.org/2000/svg">
<g clip-path="url(#clip0_511_238)">
<path d="M15.7774 6.44139L16.827 6.83085C16.9721 6.80567 17.6171 5.95673 17.9365 5.81118C18.7439 5.44218 19.646 6.11252 19.4458 7.00158C19.3133 7.58931 18.5712 7.90953 18.412 8.25807C18.3134 8.47522 18.7613 9.13297 18.7802 9.42408C19.788 9.39419 21.2098 9.27066 20.9724 10.7294C20.806 11.7482 19.4576 11.4013 18.7605 11.5279L18.3765 12.5452C18.8536 13.1833 20.0876 14.0283 19.1674 14.9072C18.2661 15.7679 17.4405 14.6837 16.8262 14.085L15.7766 14.4744C15.8405 15.3651 15.8578 16.8954 14.5591 16.7475C13.4236 16.6184 13.6507 15.2832 13.6404 14.4744L12.5782 14.0991C12.001 14.7364 10.8923 15.8537 10.1313 14.7892C9.46108 13.8497 10.4909 13.2345 11.0287 12.6113L10.6392 11.4902C9.78517 11.4886 8.3295 11.7026 8.36814 10.4272C8.4052 9.18962 9.80173 9.44847 10.6392 9.42802L11.0287 8.30685C10.349 7.73407 9.23555 6.50591 10.4602 5.8277C11.367 5.32495 11.9876 6.3037 12.5782 6.81905L13.6404 6.44375C13.5978 5.52086 13.4945 4.01968 14.8572 4.17074C15.9138 4.28797 15.7995 5.67743 15.7766 6.44375L15.7774 6.44139ZM16.7954 10.4563C16.7954 9.29898 15.8547 8.36035 14.6947 8.36035C13.5348 8.36035 12.594 9.29898 12.594 10.4563C12.594 11.6137 13.5348 12.5523 14.6947 12.5523C15.8547 12.5523 16.7954 11.6137 16.7954 10.4563Z" fill="black"/>
<path d="M2.11333 0.0141621L10.4444 0C11.934 0.248623 12.8921 1.85602 12.5845 3.30212C12.3385 4.45869 10.7054 4.4225 10.5091 3.31865C10.4089 2.75688 10.7117 2.16129 9.89242 2.04563C7.62138 2.21715 4.94739 1.7915 2.72367 2.03855C2.2529 2.09048 2.10623 2.23525 2.0534 2.70732L2.05024 18.1314C2.10308 18.7018 2.22924 18.8261 2.79937 18.8788C5.06094 19.0873 7.66239 18.7317 9.95944 18.8568C10.6967 18.7246 10.4168 18.1125 10.5091 17.5956C10.6999 16.5224 12.277 16.4453 12.5656 17.5523C12.9552 19.0425 11.8725 20.7805 10.2969 20.9245C7.72626 21.1597 4.78968 20.749 2.18035 20.9127C1.0267 20.7018 0.102512 19.7884 0 18.6035L0.00394277 2.23603C0.152191 1.10858 1.00383 0.247836 2.11333 0.0141621Z" fill="black"/>
<path d="M4.94976 15.7467C5.26755 15.6822 7.46446 15.6806 7.73572 15.764C8.63941 16.0417 8.55266 17.6208 7.60876 17.7703C7.21843 17.8317 5.24074 17.8285 4.89062 17.738C3.91991 17.4855 3.96564 15.9473 4.95055 15.7475L4.94976 15.7467Z" fill="black"/>
</g>
<defs>
<clipPath id="clip0_511_238">
<rect width="21" height="21" fill="white"/>
</clipPath>
</defs>
</svg>
