<svg width="25" height="27" viewBox="0 0 25 27" fill="none" xmlns="http://www.w3.org/2000/svg">
<g clip-path="url(#clip0_511_219)">
<path d="M5.75663 23.2911C4.90591 23.1695 4.0195 22.2151 3.88862 21.3713C3.77261 20.6234 3.78947 17.3781 4.05817 16.7718C4.15533 16.5524 4.34967 16.3848 4.43494 16.1574C3.92431 15.6069 3.82814 14.8739 3.85689 14.1439C3.20745 13.7868 2.59469 13.5246 2.02061 13.0359C-2.38567 9.28701 0.996376 2.30589 6.55975 3.15958C9.28741 -1.04705 15.7481 -1.05902 18.4668 3.16058C20.0394 2.92521 21.5653 3.31815 22.8255 4.26659C25.9448 6.61324 25.6484 11.5329 22.3238 13.5355C22.1325 13.6512 21.1965 14.0571 21.1667 14.1449C21.2014 14.9018 21.129 15.597 20.5837 16.1584C20.8425 16.4836 21.0943 16.9284 21.1489 17.3482C21.246 18.0952 21.2569 20.7381 21.136 21.4571C21.0249 22.1163 20.0215 23.2921 19.3523 23.2921H13.3943L13.2683 23.4188V25.4024H17.1709C17.8392 25.4024 18.101 26.7219 17.3008 26.9682L7.86062 27.0011C7.30438 26.9124 7.02378 26.1953 7.35395 25.7415C7.41245 25.6617 7.8041 25.4024 7.85566 25.4024H11.7583V23.2921H5.75861L5.75663 23.2911ZM21.1558 12.3178C23.8488 11.154 24.17 7.39513 21.951 5.56707C21.0577 4.83106 20.0661 4.64057 18.9289 4.71836C18.4371 4.75227 18.1337 5.04847 17.6538 4.7403C17.3623 4.55281 16.9944 3.75098 16.7049 3.41589C14.6703 1.05427 10.6924 0.991441 8.52196 3.19947C8.13824 3.58942 7.59192 4.69742 7.20027 4.82807C6.80862 4.95871 6.48737 4.7423 6.09473 4.71936C4.88509 4.65154 3.91142 4.83505 2.98932 5.65383C0.863513 7.54073 1.21847 11.147 3.8678 12.3198V10.9276C3.8678 10.8937 4.07304 10.4199 4.11667 10.3342C4.56582 9.44658 5.38779 9.09154 6.33964 9.02472C10.4376 8.7375 14.8726 9.24014 19.0062 9.03769C19.7657 9.16335 20.5163 9.56426 20.8881 10.2674C20.9327 10.3521 21.1548 10.8917 21.1548 10.9276V12.3198L21.1558 12.3178ZM6.02632 10.6483C5.75365 10.757 5.49884 10.9575 5.45917 11.2597C5.37886 11.87 5.37589 14.2087 5.4681 14.8041C5.50578 15.0464 5.65351 15.2279 5.87858 15.3197L18.9338 15.3596C19.2015 15.3526 19.4266 15.1871 19.5238 14.9397L19.5595 11.1809L19.0627 10.6683L6.02632 10.6483ZM6.02632 16.9782C5.70309 17.0929 5.50181 17.3293 5.46116 17.6763C5.38481 18.3296 5.37093 20.5087 5.4681 21.134C5.50578 21.3763 5.65351 21.5578 5.87858 21.6496L18.9338 21.6895C19.2015 21.6825 19.4266 21.5169 19.5238 21.2696L19.5595 17.5108L19.0627 16.9982L6.02731 16.9782H6.02632Z" fill="black"/>
<path d="M7.53748 12.252H11.1942C12.0033 12.5631 11.8744 13.6631 11.0246 13.8177C10.514 13.9105 8.21766 13.9115 7.70802 13.8177C6.87317 13.6651 6.75319 12.5611 7.53847 12.252H7.53748Z" fill="black"/>
<path d="M17.2444 13.8067C17.6808 13.8067 18.0346 13.4509 18.0346 13.0119C18.0346 12.5729 17.6808 12.217 17.2444 12.217C16.8079 12.217 16.4541 12.5729 16.4541 13.0119C16.4541 13.4509 16.8079 13.8067 17.2444 13.8067Z" fill="black"/>
<path d="M14.0924 13.8058C14.5255 13.8058 14.8767 13.4526 14.8767 13.0169C14.8767 12.5812 14.5255 12.228 14.0924 12.228C13.6592 12.228 13.3081 12.5812 13.3081 13.0169C13.3081 13.4526 13.6592 13.8058 14.0924 13.8058Z" fill="black"/>
<path d="M7.62373 18.5848C8.16411 18.488 10.5675 18.488 11.1079 18.5848C11.9904 18.7433 11.9239 19.985 11.0246 20.1485C10.514 20.2413 8.21765 20.2423 7.70801 20.1485C6.8216 19.986 6.76707 18.7383 7.62473 18.5848H7.62373Z" fill="black"/>
<path d="M17.2483 20.1455C17.6864 20.1455 18.0416 19.7883 18.0416 19.3476C18.0416 18.907 17.6864 18.5498 17.2483 18.5498C16.8103 18.5498 16.4551 18.907 16.4551 19.3476C16.4551 19.7883 16.8103 20.1455 17.2483 20.1455Z" fill="black"/>
<path d="M14.0914 20.1475C14.5267 20.1475 14.8796 19.7925 14.8796 19.3546C14.8796 18.9167 14.5267 18.5618 14.0914 18.5618C13.656 18.5618 13.3031 18.9167 13.3031 19.3546C13.3031 19.7925 13.656 20.1475 14.0914 20.1475Z" fill="black"/>
</g>
<defs>
<clipPath id="clip0_511_219">
<rect width="25" height="27" fill="white"/>
</clipPath>
</defs>
</svg>
