<svg width="30" height="27" viewBox="0 0 30 27" fill="none" xmlns="http://www.w3.org/2000/svg">
<path d="M11.3641 18.8299L12.3819 19.1217C13.0732 20.1143 9.80105 20.3029 9.50633 20.3718C9.44298 20.3869 9.30251 20.833 8.86181 20.6457L8.85355 23.1706C8.91415 23.428 11.9095 23.9704 12.2992 24.2967C12.7331 24.6602 13.0484 26.1759 11.966 26.0189C10.8835 25.862 11.6713 24.7028 11.6134 24.6395L8.86044 23.8121C8.58363 24.466 9.76111 25.6844 8.76266 25.9928C7.37309 26.4209 8.17598 24.5679 8.17047 23.9512L5.41612 24.6395C5.35277 24.7097 6.21626 26.0754 4.92998 26.0231C3.73322 25.9749 4.66143 24.8061 4.75095 24.2499L8.15257 23.2435L8.17874 20.7325C7.09077 20.0675 4.9713 20.5191 4.4218 19.0928L1.852 8.71673C1.72805 8.11375 1.95666 7.64017 2.58741 7.55756C3.59963 7.4254 6.9558 7.42816 7.97216 7.55756C8.22969 7.5906 8.35226 7.6264 8.52716 7.82877L11.3628 18.8299H11.3641Z" fill="black"/>
<path d="M14.0938 12.7971V16.7895H17.0548C17.176 16.7895 17.8343 17.2479 17.9348 17.4242C18.129 17.7656 18.1097 18.14 18.0932 18.5145C18.0339 19.8623 17.4073 22.9956 17.0589 24.3668C16.9143 24.9354 16.7229 25.5604 16.0605 25.7104C12.9976 26.4015 15.1667 20.9485 15.1942 19.5456H13.9561L13.1284 24.7757C12.5445 24.8528 12.8048 24.0956 12.7015 23.9648L10.6674 23.3825L11.0889 20.5327C11.6934 20.4336 12.9356 19.9738 12.8585 19.2042C12.7662 18.5365 11.867 18.732 11.6356 18.3534L9.13602 8.53076H13.3364C14.0567 8.53076 15.4531 11.8954 16.0205 12.4557C16.7972 12.7338 19.115 12.2285 19.6094 12.7228C20.1038 13.217 19.8973 13.9935 19.228 14.1463C18.6688 14.2743 16.1734 14.2523 15.5357 14.1793C14.5125 14.0609 14.7232 13.3437 14.0925 12.7999L14.0938 12.7971Z" fill="black"/>
<path d="M10.6205 3.46745C13.1793 3.18798 14.7272 6.37088 12.8543 8.18535L9.22542 8.23216C8.74892 7.56997 8.13195 7.0014 8.165 6.12307C8.21182 4.86478 9.35901 3.60511 10.6205 3.46745Z" fill="black"/>
<path d="M3.21412 16.3767H0.735208C0.795804 15.9402 0.614017 15.245 0.80269 14.8609C0.850891 14.7618 2.4374 13.4182 2.52416 13.4856L3.21412 16.3767Z" fill="black"/>
<path d="M28.5542 0.131836V7.01527H24.8358V8.39196L25.6525 8.40848L25.6621 8.80497H29.8327C29.8327 9.51471 29.8327 10.1274 29.8327 10.8783L15.814 10.8714C15.3953 10.7929 14.6833 9.26065 14.507 8.80497H19.878L19.8863 8.4071L20.7814 8.26255L20.842 7.01527H16.9859V0.131836H28.5542ZM17.5368 0.682511V6.4646H28.0033V0.682511H17.5368Z" fill="black"/>
<path d="M29.8327 14.4507L29.8134 16.1523V16.3781L14.6365 16.3175L14.5084 14.4507C15.9186 14.5443 17.877 14.7729 19.2652 14.5939C19.6687 14.5416 19.761 14.3117 20.0089 14.236C20.5487 14.0708 24.4709 14.0845 25.1843 14.1713C25.6787 14.2318 25.8398 14.5388 26.2764 14.5939C27.6687 14.7701 28.4211 14.5457 29.8327 14.4507Z" fill="black"/>
<path d="M29.8111 11.283V11.9768L25.3866 11.835C25.9072 12.4614 24.9735 12.9116 25.2489 13.761H20.2911C20.5665 12.9116 19.6328 12.4614 20.1534 11.835L16.2518 11.9768L15.8841 11.283H29.8111Z" fill="black"/>
<path d="M16.7106 7.01527H14.094L14.1559 6.59401L16.1597 6.4646V0.682511H5.55547V6.4646H7.75895V7.01527H5.14232V0.131836H16.504L16.7106 0.338339V7.01527Z" fill="black"/>
</svg>
