<svg width="32" height="32" viewBox="0 0 32 32" fill="none" xmlns="http://www.w3.org/2000/svg">
<g clip-path="url(#clip0_511_201)">
<path d="M10.985 4.63494C11.3952 4.63494 11.7277 4.3025 11.7277 3.89242C11.7277 3.48234 11.3952 3.1499 10.985 3.1499C10.5748 3.1499 10.2422 3.48234 10.2422 3.89242C10.2422 4.3025 10.5748 4.63494 10.985 4.63494Z" fill="black"/>
<path d="M27.3637 10.9906C27.3637 11.4001 27.6968 11.7331 28.1075 11.7331C28.5181 11.7331 28.8502 11.4001 28.8502 10.9906C28.8502 10.581 28.5171 10.248 28.1075 10.248C27.6978 10.248 27.3637 10.581 27.3637 10.9906Z" fill="black"/>
<path d="M3.87879 21.7402C4.29008 21.7402 4.6235 21.4069 4.6235 20.9957C4.6235 20.5845 4.29008 20.2512 3.87879 20.2512C3.4675 20.2512 3.13408 20.5845 3.13408 20.9957C3.13408 21.4069 3.4675 21.7402 3.87879 21.7402Z" fill="black"/>
<path d="M20.9826 28.8571C21.3944 28.8571 21.7283 28.5234 21.7283 28.1117C21.7283 27.7 21.3944 27.3662 20.9826 27.3662C20.5708 27.3662 20.2369 27.7 20.2369 28.1117C20.2369 28.5234 20.5708 28.8571 20.9826 28.8571Z" fill="black"/>
<path d="M21.0121 4.63295C21.4198 4.63295 21.7519 4.30098 21.7519 3.89338C21.7519 3.48578 21.4198 3.15381 21.0121 3.15381C20.6043 3.15381 20.2723 3.48578 20.2723 3.89338C20.2723 4.30098 20.6043 4.63295 21.0121 4.63295Z" fill="black"/>
<path d="M3.88763 11.7143C4.29675 11.7143 4.62841 11.3827 4.62841 10.9737C4.62841 10.5647 4.29675 10.2332 3.88763 10.2332C3.47851 10.2332 3.14685 10.5647 3.14685 10.9737C3.14685 11.3827 3.47851 11.7143 3.88763 11.7143Z" fill="black"/>
<path d="M28.0986 20.3015C27.6889 20.3015 27.3569 20.6345 27.3569 21.044C27.3569 21.4536 27.6899 21.7856 28.0986 21.7856C28.5073 21.7856 28.8414 21.4526 28.8414 21.044C28.8414 20.6355 28.5083 20.3015 28.0986 20.3015Z" fill="black"/>
<path d="M10.9624 27.3682C10.5566 27.3682 10.2255 27.6982 10.2255 28.1048C10.2255 28.5114 10.5556 28.8414 10.9624 28.8414C11.3691 28.8414 11.6992 28.5114 11.6992 28.1048C11.6992 27.6982 11.3691 27.3682 10.9624 27.3682Z" fill="black"/>
<path d="M31.543 14.4506C31.0311 13.5981 30.1528 13.11 29.1339 13.11C27.8056 13.11 26.6866 13.934 26.3388 15.1411L24.0143 15.2128C23.806 13.6128 23.191 12.1514 22.184 10.8647L23.7854 9.27558C24.2874 9.5005 24.8071 9.61836 25.3013 9.61836C25.9419 9.61836 26.5196 9.4288 27.0197 9.05361C28.0719 8.26493 28.458 7.15705 28.0768 6.01479C27.6534 4.74485 26.382 3.78723 25.1196 3.78723C24.5114 3.78723 23.6311 4.00527 22.8982 5.04244C22.2724 5.92738 22.2124 7.07356 22.7243 8.21386L21.1347 9.81479C19.8447 8.80611 18.3818 8.19127 16.7774 7.98403L16.7794 5.71621C16.8983 5.65237 17.0181 5.59835 17.1341 5.54531C17.4769 5.38915 17.8316 5.22807 18.1696 4.83717C18.9428 3.94143 19.1157 2.77658 18.6333 1.72173C18.1548 0.676708 17.1301 0.000976562 16.0239 0.000976562C15.6653 0.000976562 15.3037 0.0697283 14.9471 0.204285C13.8968 0.601081 13.1953 1.56557 13.1158 2.72256C13.0372 3.86188 13.5883 4.89708 14.5551 5.42451C14.6582 5.48049 14.7879 5.52076 14.9245 5.56397C15.01 5.59049 15.1416 5.63174 15.2143 5.6671L15.2163 7.98403C13.6119 8.19127 12.149 8.80611 10.859 9.81479L9.26547 8.20993C9.77537 7.01463 9.7174 5.92246 9.0955 5.04244C8.86757 4.72029 8.17394 4.12019 7.65913 4.12019C7.49899 4.12019 7.35948 4.17519 7.25533 4.2793C7.12761 4.40698 7.06277 4.60047 7.06375 4.85387C7.06375 5.1603 7.29267 5.3695 7.53436 5.59147C7.78489 5.82228 8.04327 6.05997 8.11598 6.42337C8.21029 6.89285 8.12777 7.30143 7.87724 7.60688C7.61197 7.93001 7.17084 8.1235 6.69631 8.1235C6.25223 8.1235 5.85826 7.95359 5.61559 7.65697C5.35131 7.33384 5.27271 6.86633 5.38766 6.30551C5.43973 6.04916 5.68437 5.83603 5.92016 5.62978C6.17757 5.40486 6.44381 5.17307 6.44381 4.8519C6.44381 4.31564 6.12353 4.12412 5.82388 4.12412C5.36899 4.12412 4.79327 4.54154 4.54667 4.82342C3.63985 5.86059 3.59465 7.37116 4.43663 8.49673C4.9819 9.22549 5.75903 9.6105 6.68452 9.6105C7.18165 9.6105 7.70432 9.49363 8.20735 9.27264L9.80975 10.8628C8.80076 12.1524 8.18573 13.6158 7.97843 15.2187L5.70991 15.2167C5.64605 15.0979 5.59201 14.9781 5.53896 14.8622C5.38275 14.5194 5.22162 14.1648 4.8306 13.8269C4.27256 13.3447 3.61234 13.0903 2.92363 13.0903C1.90579 13.0903 0.941988 13.6403 0.406542 14.5253C-0.120061 15.3955 -0.131851 16.4464 0.373138 17.4089C0.851601 18.3204 1.82032 18.8871 2.90103 18.8871C3.96701 18.8871 4.9318 18.3331 5.41812 17.4413C5.47412 17.3382 5.51538 17.2086 5.55763 17.072C5.58415 16.9866 5.62542 16.855 5.66079 16.7823L7.97843 16.7803C8.18573 18.3832 8.80076 19.8467 9.80975 21.1362L8.20833 22.7254C7.70531 22.5005 7.18558 22.3816 6.69631 22.3816C6.03118 22.3816 5.43187 22.5889 4.91804 22.9974C3.89824 23.8077 3.53767 24.9137 3.92771 26.0314C4.36098 27.2718 5.63131 28.2069 6.88298 28.2069C7.51274 28.2069 8.41465 27.978 9.13971 26.8917C9.72133 26.0196 9.76554 24.897 9.27038 23.7871L10.861 22.1862C12.151 23.1949 13.6139 23.8097 15.2182 24.0169L15.2163 26.2848C15.0974 26.3486 14.9775 26.4026 14.8616 26.4557C14.5187 26.6118 14.1641 26.7729 13.8261 27.1638C13.0529 28.0595 12.879 29.2244 13.3624 30.2792C13.8408 31.3243 14.8655 31.999 15.9718 31.999C16.3304 31.999 16.6929 31.9303 17.0496 31.7957C18.0998 31.3989 18.8013 30.4344 18.8809 29.2784C18.9595 28.1391 18.4083 27.1039 17.4416 26.5765C17.3384 26.5205 17.2087 26.4792 17.0722 26.437C16.9867 26.4105 16.855 26.3692 16.7823 26.3339L16.7804 24.0169C18.3847 23.8097 19.8476 23.1949 21.1376 22.1862L22.7273 23.7871C22.2154 24.9264 22.2753 26.0726 22.9012 26.9575C23.637 27.9996 24.5144 28.2177 25.1206 28.2177C26.4007 28.2177 27.6769 27.2365 28.0906 25.9361C28.46 24.7742 28.0473 23.6673 26.9597 22.8982C26.4744 22.5555 25.9183 22.3816 25.3062 22.3816C24.8121 22.3816 24.2904 22.4995 23.7873 22.7254L22.2124 21.1824C22.6585 20.5902 22.8235 20.0362 22.6546 19.6718C22.5612 19.4695 22.3706 19.3497 22.1437 19.3497C21.7644 19.3497 21.34 19.6699 20.9568 20.2376L19.6433 19.4754L19.9763 16.7695H22.5209C22.5033 16.9306 22.4453 17.1477 22.4001 17.3205C22.2773 17.7851 22.1505 18.2654 22.3804 18.5826C22.459 18.6906 22.6143 18.8242 22.9061 18.8409C22.9238 18.8409 22.9405 18.8419 22.9572 18.8419C23.7038 18.8419 23.8188 17.9776 23.9023 17.347C23.9308 17.1349 23.9593 16.9188 24.0035 16.7646L26.2838 16.7813C26.3477 16.9011 26.4027 17.021 26.4557 17.1369C26.6119 17.4796 26.7731 17.8342 27.1641 18.1721C27.7231 18.6553 28.3823 18.9097 29.0681 18.9097C30.1056 18.9097 31.1146 18.3135 31.6363 17.3903C32.1521 16.4788 32.1177 15.4073 31.542 14.4506H31.543ZM25.2551 5.33218C26.0333 5.33218 26.667 5.96568 26.667 6.74356C26.667 7.52143 26.0333 8.15493 25.2551 8.15493C24.477 8.15493 23.8433 7.52143 23.8433 6.74356C23.8433 5.96568 24.477 5.33218 25.2551 5.33218ZM2.89317 17.4109C2.11407 17.4109 1.48038 16.7774 1.48038 15.9985C1.48038 15.2197 2.11407 14.5862 2.89317 14.5862C3.67227 14.5862 4.30596 15.2197 4.30596 15.9985C4.30596 16.7774 3.67227 17.4109 2.89317 17.4109ZM6.73561 26.6649C5.95749 26.6649 5.32478 26.0323 5.32478 25.2545C5.32478 24.4766 5.95749 23.8441 6.73561 23.8441C7.51372 23.8441 8.14643 24.4766 8.14643 25.2545C8.14643 26.0323 7.51372 26.6649 6.73561 26.6649ZM25.2551 23.8451C26.0333 23.8451 26.667 24.4786 26.667 25.2564C26.667 26.0343 26.0333 26.6678 25.2551 26.6678C24.477 26.6678 23.8433 26.0343 23.8433 25.2564C23.8433 24.4786 24.477 23.8451 25.2551 23.8451ZM14.5806 2.90132C14.5806 2.12246 15.2143 1.48798 15.9934 1.48798C16.7725 1.48798 17.4062 2.12148 17.4062 2.90132C17.4062 3.68116 16.7725 4.31466 15.9934 4.31466C15.2143 4.31466 14.5806 3.68116 14.5806 2.90132ZM14.9795 10.0898C15.3194 9.6881 15.6623 9.48479 15.9973 9.48479C16.8344 9.48479 17.5811 10.7361 17.8306 11.7605C17.1124 11.9127 16.4984 11.9844 15.9148 11.9844C15.289 11.9844 14.7024 11.9009 14.1257 11.7281C14.2181 11.2979 14.7103 10.407 14.9795 10.0888V10.0898ZM11.0064 11.7428L12.3494 12.5246L12.0164 15.2314H9.50617C9.58575 14.0921 10.0898 12.9204 11.0064 11.7438V11.7428ZM9.50617 16.7695H12.0164L12.3367 19.3399L10.9956 20.2444C10.0848 19.0717 9.58477 17.9049 9.50617 16.7695ZM12.1618 21.2934L12.821 20.9123L13.2877 21.9495C12.9144 21.7766 12.5224 21.5635 12.1608 21.2934H12.1618ZM12.821 11.0867L12.1608 10.7056C12.5224 10.4355 12.9144 10.2224 13.2877 10.0495L12.821 11.0867ZM17.4072 29.0977C17.4072 29.8765 16.7735 30.51 15.9944 30.51C15.2153 30.51 14.5816 29.8765 14.5816 29.0977C14.5816 28.3188 15.2153 27.6853 15.9944 27.6853C16.7735 27.6853 17.4072 28.3188 17.4072 29.0977ZM15.9973 22.5152C15.6623 22.5152 15.3194 22.3119 14.9795 21.9102C14.7103 21.592 14.2181 20.7011 14.1257 20.271C14.7024 20.0991 15.288 20.0146 15.9148 20.0146C16.4984 20.0146 17.1124 20.0863 17.8306 20.2385C17.5811 21.2629 16.8354 22.5142 15.9973 22.5142V22.5152ZM18.3061 18.8164C17.5103 18.673 16.6743 18.5472 15.8333 18.5472C15.0453 18.5472 14.3517 18.6592 13.72 18.8881C13.6257 18.4883 13.5372 17.5533 13.495 17.1143C13.4822 16.9787 13.4714 16.8648 13.4616 16.7695H18.5341L18.3071 18.8164H18.3061ZM13.4616 15.2305C13.4714 15.1352 13.4822 15.0213 13.495 14.8857C13.5372 14.4467 13.6257 13.5117 13.72 13.1119C14.3517 13.3408 15.0463 13.4527 15.8333 13.4527C16.6743 13.4527 17.5113 13.327 18.3061 13.1836L18.5331 15.2305H13.4606H13.4616ZM19.8781 21.2855C19.605 21.4751 19.1187 21.7452 18.7227 21.9446C18.9644 21.5036 19.1344 21.1804 19.2307 20.9359L19.8781 21.2855ZM19.2307 11.0641C19.1344 10.8196 18.9654 10.4984 18.7247 10.0584C19.1167 10.2597 19.5942 10.5308 19.8683 10.7194L19.2307 11.0641ZM19.9754 15.2305L19.6423 12.5236L20.9844 11.7428C21.8951 12.9263 22.3991 14.097 22.4836 15.2305H19.9754ZM29.0976 17.4109C28.3185 17.4109 27.6848 16.7774 27.6848 15.9985C27.6848 15.2197 28.3185 14.5862 29.0976 14.5862C29.8767 14.5862 30.5104 15.2197 30.5104 15.9985C30.5104 16.7774 29.8767 17.4109 29.0976 17.4109Z" fill="black"/>
</g>
<defs>
<clipPath id="clip0_511_201">
<rect width="32" height="32" fill="white"/>
</clipPath>
</defs>
</svg>
