<svg width="28" height="28" viewBox="0 0 28 28" fill="none" xmlns="http://www.w3.org/2000/svg">
<g clip-path="url(#clip0_511_243)">
<path d="M21.6028 20.6573C22.0638 20.6573 22.4388 20.2821 22.4388 19.8201C22.4388 19.3581 22.0638 18.9839 21.6028 18.9839C21.1419 18.9839 20.7659 19.359 20.7659 19.8201C20.7659 20.2812 21.141 20.6573 21.6028 20.6573Z" fill="black"/>
<path d="M27.3537 18.367C26.6054 18.367 26.2626 18.1656 26.2062 17.6937C26.1624 17.3284 26.3772 17.1297 26.626 16.8996C26.7961 16.7429 26.9715 16.5799 27.0807 16.3516L27.0986 16.3149L27.0915 16.2746C27.0834 16.2272 27.0691 16.1484 26.1982 15.2772C26.1642 15.2432 25.3541 14.4338 25.2404 14.3747C25.2064 14.3568 25.1688 14.3478 25.1294 14.3478C24.9558 14.3478 24.7866 14.5197 24.5727 14.7364C24.3856 14.9262 24.1735 15.142 23.9972 15.1823C23.9121 15.202 23.8325 15.2118 23.7591 15.2118C23.5729 15.2118 23.427 15.1501 23.3142 15.0229C22.975 14.6415 23.0439 13.8115 23.0725 13.5671L23.0895 13.4265L22.1864 13.4167C22.1712 13.1024 22.0754 12.7577 21.9832 12.4238C21.9089 12.1534 21.8382 11.8982 21.8212 11.6958C21.8105 11.5642 21.8149 11.4998 21.8731 11.4389C22.5928 10.6304 23.4404 9.84069 24.2603 9.07786C25.1903 8.21207 26.1516 7.31762 26.9384 6.38378C28.0367 5.08017 28.2989 3.54107 27.6572 2.16135C27.0467 0.847888 25.7336 0 24.3113 0C23.3563 0 22.4057 0.38052 21.5634 1.09948C20.6397 1.88738 19.7545 2.83644 18.8988 3.75327C18.146 4.55997 17.3673 5.39353 16.5698 6.1107L16.4391 6.17069L14.4591 5.80629C13.8093 4.67189 12.6027 4.02277 11.1375 4.02277C10.8672 4.02277 10.5906 4.04515 10.3149 4.08992C9.45384 2.62335 8.05393 1.78531 6.46337 1.78531C5.0563 1.78531 3.68055 2.43891 2.78457 3.53391C1.92171 4.58773 1.59143 5.94596 1.84653 7.36955C0.403652 7.80469 -0.0403093 9.11636 0.0214514 10.1272C0.0930581 11.301 0.852089 12.5778 2.38626 12.7846C2.62704 12.8168 2.89914 12.8329 3.21779 12.8329C3.57046 12.8329 3.94192 12.8141 4.30085 12.7953C4.65798 12.7765 5.02676 12.7577 5.37405 12.7577C5.56112 12.7577 5.7294 12.7631 5.88425 12.7738C5.71508 14.1267 5.82607 15.322 6.2208 16.4197L2.31376 20.4093L2.3057 20.4415C2.08372 21.2912 1.64245 22.2627 1.21549 23.2028C0.730357 24.27 0.229111 25.374 0.0348777 26.3266C-0.058211 26.785 0.0339826 27.2121 0.293557 27.5299C0.5406 27.8326 0.909374 27.9991 1.33185 27.9991C1.44284 27.9991 1.55741 27.9875 1.67199 27.9642C2.60198 27.7753 3.66713 27.2918 4.69826 26.8244C5.62646 26.4027 6.58689 25.9676 7.43453 25.7536L7.46765 25.7455L10.2523 23.0658C10.2907 23.2377 10.374 23.4078 10.4465 23.5555C10.4966 23.6576 10.553 23.7731 10.5575 23.8241C10.5655 23.9244 10.5172 24.0229 10.4554 24.1473C10.3239 24.4124 10.1439 24.7759 10.442 25.4178C10.6228 25.8064 10.8546 25.9049 11.0417 25.9837C11.142 26.0258 11.2288 26.0625 11.3058 26.1386C11.3604 26.1932 11.432 26.3472 11.4955 26.4833C11.5618 26.6257 11.6298 26.7725 11.7059 26.8755C12.2241 27.581 13.0807 28.0018 13.9973 28.0018C14.9138 28.0018 15.7167 27.6105 16.243 26.9292C16.3326 26.8137 16.4104 26.6507 16.4847 26.4931C16.5536 26.3481 16.6252 26.1977 16.6843 26.1386C16.7729 26.0491 16.8938 25.9756 17.0218 25.8977C17.3136 25.7196 17.6662 25.5056 17.7092 25.0114L18.1666 25.3659L18.2445 25.2665C18.6535 24.7445 19.0984 24.4446 19.4636 24.4446C19.6363 24.4446 19.7822 24.5118 19.8977 24.6434C20.1358 24.9147 20.219 25.4223 20.134 26.0732L20.1152 26.2165H23.0654L23.0716 26.0965C23.0779 25.9712 23.0734 25.8395 23.069 25.6999C23.0546 25.2728 23.0394 24.8314 23.3482 24.5905C23.504 24.4697 23.6508 24.4106 23.7984 24.4106C24.135 24.4106 24.4214 24.7257 24.6515 24.9782C24.8296 25.1743 24.9585 25.3167 25.1088 25.3167C25.1214 25.3167 25.1339 25.3158 25.1464 25.3131L25.193 25.305L25.2225 25.2683C25.4239 25.0203 25.7336 24.749 26.0335 24.4876C26.3978 24.1688 26.7755 23.8385 26.9921 23.5233C27.1872 23.2395 26.8731 22.9574 26.6206 22.7309C26.4873 22.6118 26.3503 22.4874 26.3002 22.388C26.1642 22.1122 26.1534 21.8794 26.2671 21.6959C26.4354 21.4255 26.8901 21.2509 27.4271 21.2509C27.5712 21.2509 27.7144 21.2643 27.8415 21.2903L27.9937 21.3208V18.3482L27.7377 18.3581C27.6133 18.3634 27.4844 18.3688 27.3528 18.3688L27.3537 18.367ZM21.3056 10.3116L20.1581 8.68929L22.0405 6.8225C22.309 7.02037 23.2113 7.92287 23.4091 8.19147L21.3047 10.3116H21.3056ZM21.6019 18.342C22.4173 18.342 23.0806 19.0054 23.0806 19.8211C23.0806 20.6367 22.4173 21.3002 21.6019 21.3002C20.7865 21.3002 20.1232 20.6367 20.1232 19.8211C20.1232 19.0054 20.7865 18.342 21.6019 18.342ZM23.9247 1.17111C24.0482 1.15678 24.1708 1.14872 24.2898 1.14872C25.6692 1.14872 26.4443 2.07809 26.7093 2.94836C27.0548 4.08186 26.6493 5.24938 25.6763 5.95133L22.0405 2.37713C22.5059 1.70473 23.2032 1.25527 23.9238 1.17021L23.9247 1.17111ZM21.1544 3.20532L24.7875 6.83951L24.2872 7.34001L20.654 3.70582L21.1544 3.20532ZM19.8028 4.58325C20.0713 4.78112 20.9736 5.68363 21.1714 5.95223L19.3042 7.83513L17.6823 6.6873L19.8028 4.58236V4.58325ZM5.52174 11.7451C4.48702 11.7451 3.58657 11.7111 2.76846 11.6394C1.60306 11.5383 1.11614 10.6975 1.15015 9.90963C1.18416 9.1101 1.76507 8.3016 2.80874 8.3016H2.84723C3.74768 8.31861 4.46196 9.051 4.4727 9.96962L4.47449 10.0941L5.6202 10.0994L5.61751 9.96962C5.58977 8.47619 4.58906 7.39014 2.99939 7.11528C2.80516 6.04445 3.04773 5.02734 3.68771 4.24392C4.35455 3.42826 5.3839 2.9412 6.44278 2.9412C7.62698 2.9412 8.67422 3.5545 9.33569 4.62891C8.72614 4.92617 8.17208 5.58872 7.83463 6.43392C7.7863 6.55479 7.75229 6.72849 7.71917 6.89681C7.695 7.02037 7.6583 7.2066 7.63503 7.24241C7.61802 7.25763 7.54642 7.27554 7.50345 7.28628C7.42827 7.30509 7.34234 7.32658 7.27252 7.37134C6.58152 7.81096 6.26824 8.33562 6.2575 9.07428L6.25571 9.20411L7.3853 9.19157L7.39604 9.07786C7.44438 8.54872 7.8221 8.31235 8.17477 8.31235C8.52743 8.31235 8.90515 8.54872 8.95349 9.07786L8.96423 9.19157L10.0929 9.20411V9.07518C10.0893 8.61497 9.9336 8.17625 9.65255 7.83871C9.45294 7.59876 9.23902 7.49132 9.08328 7.41342C8.82281 7.2827 8.74404 7.24331 8.99108 6.64701C9.36881 5.73466 10.212 5.1894 11.2485 5.1894C12.4291 5.1894 13.7037 5.96387 13.8559 7.44297C13.9364 8.22013 13.7458 8.3598 13.4567 8.5702C13.2651 8.70988 13.027 8.88268 12.8238 9.25783C12.6027 9.6661 12.5043 10.0484 12.5222 10.4262L12.5285 10.5471L13.6688 10.5426V10.4155C13.6652 10.0028 13.8523 9.72698 14.0098 9.56761C14.247 9.32945 14.5755 9.19247 14.9121 9.19247C15.1439 9.19247 15.4831 9.25783 15.7785 9.56851C16.1142 9.92217 16.2063 10.4245 16.0175 10.8811C15.8304 11.3341 15.4169 11.6242 14.9371 11.6394C14.2443 11.5938 13.4978 11.5714 12.6547 11.5714C11.4758 11.5714 10.2576 11.6153 9.0788 11.6582C7.90445 11.7012 6.68982 11.7451 5.51905 11.7451H5.52174ZM6.90912 17.5057L8.08973 19.0358L5.01333 22.0514L3.70562 20.686L6.90912 17.5057ZM1.36945 26.8173C1.24324 26.8173 1.21549 26.7689 1.20654 26.7528C1.17342 26.6964 1.10719 26.4555 1.53593 25.6712L2.32719 26.4627C1.7964 26.7537 1.51445 26.8173 1.36945 26.8173ZM3.59641 26.0061L2.01391 24.4545L1.99332 24.3882L2.94569 21.841L6.15635 25.0525L3.59641 26.0052V26.0061ZM7.25104 24.2897L5.94332 22.9243L8.9884 19.8784C9.21217 20.0046 9.88348 20.8614 10.2344 21.3727L7.25104 24.2906V24.2897ZM9.46637 18.7637C8.94096 18.2542 8.39675 17.7278 7.97248 17.1431C7.09171 15.929 6.79992 14.5815 7.03353 12.7855H11.6289V14.3147C11.6289 14.7821 12.3593 15.3712 12.7827 15.4482C12.9456 15.4778 13.1899 15.4921 13.5524 15.4921C13.9149 15.4921 14.3106 15.4796 14.7107 15.4661C15.1233 15.4536 15.5503 15.4402 15.9172 15.4402C16.6145 15.4402 16.8419 15.4912 16.909 15.5342C16.9878 15.5843 17.02 15.7643 16.977 15.9129C16.9582 15.9792 16.909 16.0911 16.7953 16.0911H16.781C16.4793 16.1251 16.1446 16.1412 15.7579 16.1412C15.3229 16.1412 14.8691 16.1206 14.4305 16.1009C13.9928 16.0812 13.5399 16.0606 13.1049 16.0606C12.7066 16.0606 12.362 16.0776 12.0532 16.1135C11.1733 16.2137 10.7571 16.9014 10.7365 17.5379C10.7159 18.1512 11.0677 18.8801 11.8867 19.0305C11.9466 19.0412 12.0272 19.0457 12.157 19.0457C12.2196 19.0457 12.2886 19.0448 12.3611 19.043C12.4407 19.0421 12.524 19.0403 12.609 19.0403C13.2776 19.0403 13.4182 19.1487 13.4182 19.2391V21.4846H11.6155C11.1357 20.3806 10.2872 19.5587 9.46548 18.7628L9.46637 18.7637ZM14.0358 26.8638H14.0107C13.5229 26.8638 12.9196 26.6095 12.6717 26.2156H15.3157C15.0803 26.5863 14.4932 26.8558 14.0349 26.8638H14.0358ZM16.5653 24.8072C16.5169 24.9451 16.3639 25.0472 16.175 25.0669C15.706 25.117 14.8879 25.1465 13.9856 25.1465C13.0834 25.1465 12.2751 25.117 11.8133 25.0669C11.5376 25.0373 11.415 24.8842 11.415 24.7454C11.415 24.6067 11.5385 24.4536 11.8133 24.424C12.2742 24.3748 13.0002 24.347 13.8577 24.347C14.7151 24.347 15.5583 24.3748 16.09 24.4204L16.1482 24.4249C16.2511 24.4321 16.4239 24.4446 16.4785 24.4983C16.5715 24.5914 16.6029 24.7007 16.5653 24.8072ZM16.5653 23.0165C16.5169 23.1544 16.3639 23.2565 16.175 23.2762C15.706 23.3263 14.8879 23.3559 13.9856 23.3559C13.0834 23.3559 12.2751 23.3263 11.8133 23.2762C11.5376 23.2466 11.415 23.0935 11.415 22.9548C11.415 22.816 11.5385 22.6629 11.8133 22.6333C12.2742 22.5841 13.0002 22.5563 13.8577 22.5563C14.7151 22.5563 15.5583 22.5841 16.09 22.6297L16.1482 22.6342C16.2511 22.6414 16.4239 22.6539 16.4785 22.7076C16.5715 22.8008 16.6029 22.91 16.5653 23.0165ZM16.3728 21.4846H14.5683V19.06C14.5683 18.6876 13.9704 18.1074 13.6357 17.9955C13.4414 17.9301 13.1881 17.9247 12.9241 17.9247H12.7585C12.1883 17.9247 11.8974 17.8773 11.8876 17.6167C11.8759 17.3105 11.9726 17.289 12.3441 17.2577C12.5258 17.2425 12.7298 17.2353 12.9697 17.2353C13.3949 17.2353 13.8747 17.2595 14.3383 17.2828C14.8199 17.3069 15.3175 17.332 15.7767 17.332C16.329 17.332 16.7398 17.2962 17.071 17.2201C17.8291 17.0446 18.1549 16.3597 18.1406 15.7598C18.1263 15.1572 17.7665 14.4857 16.9931 14.3452C16.8293 14.3156 16.585 14.3013 16.226 14.3013C15.8671 14.3013 15.467 14.3147 15.0678 14.3272C14.6552 14.3407 14.2282 14.3541 13.8621 14.3541C13.1684 14.3541 12.9393 14.3022 12.874 14.2619C12.8498 14.2413 12.7943 14.1553 12.7773 14.1177V12.7846H15.2907C15.6845 12.7846 16.4498 12.2465 16.6825 11.9779C17.2966 11.2688 17.4353 10.2964 17.0441 9.44048C16.6682 8.61766 15.894 8.09478 15.0069 8.05628L14.9362 7.06872C16.7327 7.25584 18.4181 8.23087 19.5808 9.76101C20.7847 11.3458 21.2698 13.3128 20.9127 15.159C20.6227 16.6551 19.6112 17.6615 18.5398 18.727C17.7155 19.5462 16.8642 20.3932 16.3719 21.4846H16.3728ZM26.8453 20.1443C26.1131 20.1864 25.4732 20.643 25.1948 21.3324C24.9227 22.0066 25.0551 22.7363 25.5385 23.2672L25.0462 23.7588C24.7025 23.4463 24.2719 23.2762 23.8199 23.2762C23.3169 23.2762 22.8219 23.4839 22.4621 23.8474C22.1381 24.1742 21.9501 24.6031 21.9241 25.066H21.2779C21.2519 24.6031 21.064 24.1742 20.7399 23.8465C20.381 23.4839 19.886 23.2762 19.383 23.2762C18.9337 23.2762 18.5058 23.4445 18.1639 23.7525C18.0994 23.6871 18.0171 23.6164 17.9321 23.543C17.8291 23.4544 17.6743 23.3201 17.6528 23.2762C17.6465 23.2493 17.6618 23.1562 17.6716 23.0944C17.6913 22.9762 17.7128 22.8428 17.6967 22.7202C17.677 22.576 17.6045 22.456 17.5409 22.3504C17.4962 22.277 17.455 22.208 17.4478 22.1552C17.3977 21.7944 18.0484 20.9608 18.3608 20.5597C18.3716 20.5454 18.3823 20.532 18.393 20.5185L18.7878 21.4577L18.7913 21.464C19.3588 22.4713 20.4106 23.0729 21.6055 23.0729C22.8004 23.0729 23.8924 22.4489 24.4465 21.4031C25.0086 20.3421 24.9907 19.1218 24.3982 18.1378C23.8289 17.1923 22.8246 16.6113 21.6887 16.5629C21.7183 16.4796 21.7487 16.3964 21.7782 16.3149C21.9089 15.9568 22.0432 15.5906 22.0835 15.202C22.1014 15.2369 22.1193 15.2718 22.1372 15.3085C22.2186 15.4733 22.3028 15.6434 22.4478 15.7938C22.8058 16.1654 23.2632 16.3624 23.7716 16.3624C24.2245 16.3624 24.6855 16.203 25.0811 15.9129L25.5385 16.3758C25.0551 16.9076 24.9227 17.6373 25.1948 18.3106C25.4732 19 26.114 19.4567 26.8453 19.4987V20.1452V20.1443Z" fill="black"/>
</g>
<defs>
<clipPath id="clip0_511_243">
<rect width="28" height="28" fill="white"/>
</clipPath>
</defs>
</svg>
