<svg width="29" height="30" viewBox="0 0 29 30" fill="none" xmlns="http://www.w3.org/2000/svg">
<g clip-path="url(#clip0_511_211)">
<path d="M8.22946 29.9713L8.19639 29.9574C8.05431 29.8953 7.94528 29.7702 7.8729 29.5849C7.65039 29.0159 7.82107 27.9206 7.98818 27.5137C8.22409 26.9392 8.69414 26.5027 9.27947 26.3165C9.32326 26.3026 9.90143 26.1525 9.98543 26.1525H11.1043V24.5744H1.92759L1.9133 24.5716C1.23146 24.4539 0.366428 23.6542 0.166255 22.9573L0.16 22.9369V22.9156C-0.0365982 19.4647 -0.00800212 15.9267 0.020594 12.5045C0.0384665 10.3685 0.0563391 8.15932 0.0197003 5.99555V5.98629V5.97702C0.122467 4.74733 0.915115 3.85031 2.09023 3.63718L2.10543 3.6344L15.2266 3.63996C15.2275 3.63254 15.2292 3.62513 15.2301 3.61864C15.2462 3.52227 15.2659 3.4018 15.3222 3.30265C15.3865 3.19052 17.1577 1.35664 17.3489 1.26212C17.4535 1.21023 17.5598 1.18336 17.6653 1.18336C18.0272 1.18336 18.281 1.48082 18.4847 1.71897C18.5517 1.79774 18.65 1.91265 18.7037 1.94508L19.5928 1.54754C19.5973 1.45858 19.5937 1.35201 19.5901 1.24081C19.5758 0.825663 19.558 0.308581 19.9851 0.10564C20.1907 0.00741336 21.3372 0 21.6839 0C22.2263 0 22.9046 0.0148267 23.0565 0.0843269C23.473 0.275221 23.447 0.741336 23.4274 1.08235C23.4184 1.2334 23.4086 1.40298 23.4435 1.48452C23.5766 1.58738 24.2272 1.87002 24.439 1.92099C24.5105 1.84963 24.5793 1.77179 24.6454 1.69581C24.8652 1.4456 25.0922 1.18706 25.4255 1.18706C25.5953 1.18706 25.7687 1.25471 25.9555 1.39556C26.1583 1.54754 27.7186 3.17755 27.8097 3.42775C27.9831 3.90499 27.6417 4.23303 27.3674 4.49713C27.2843 4.57775 27.2038 4.65466 27.1422 4.72972C27.1922 4.84185 27.2333 4.97436 27.2771 5.11244C27.3602 5.37654 27.4737 5.73701 27.6239 5.76666C27.665 5.775 27.7168 5.77871 27.782 5.77871C27.8419 5.77871 27.9045 5.77593 27.9679 5.77315C28.0385 5.76944 28.1109 5.76666 28.1815 5.76666C28.3682 5.76666 28.8651 5.76666 28.9679 6.33564C29.017 6.60993 29.0224 9.0443 28.891 9.34083C28.7069 9.75598 28.2333 9.75598 28.0313 9.75598C27.9527 9.75598 27.8741 9.7532 27.7963 9.75042C27.7266 9.74764 27.6587 9.74486 27.5944 9.74486C27.5595 9.74486 27.5282 9.74486 27.5005 9.74764L27.1377 10.6206C27.2217 10.7299 27.3075 10.83 27.3897 10.9264C27.648 11.2285 27.8705 11.4888 27.8419 11.8252C27.8205 12.081 27.6587 12.3275 27.3209 12.6194L27.2539 22.5718V22.5811C27.177 23.3391 26.1047 24.5753 25.3549 24.5753H16.1935V26.1534H17.4016C18.0763 26.1534 18.978 26.7604 19.2926 27.4266C19.4793 27.8223 19.6715 28.976 19.4114 29.5969C19.3024 29.8573 19.1398 29.9555 19.0218 29.9926L18.9959 30.0009L8.22946 29.9722V29.9713ZM18.0701 28.4691C18.0308 28.1161 17.7975 27.8223 17.4705 27.7315C17.0719 27.7584 16.6439 27.7714 16.1631 27.7714C15.4232 27.7714 14.6555 27.7399 13.9138 27.7102C13.1757 27.6805 12.4125 27.649 11.6798 27.649C11.0453 27.649 10.4957 27.6722 9.99794 27.7195C9.55471 27.7621 9.28304 28.0318 9.233 28.4691H18.071H18.0701ZM14.6779 26.1525V24.5744H12.6198V26.1525H14.6779ZM1.53887 22.4903C1.55853 22.6469 2.17245 23.1084 2.48164 23.1084C2.50041 23.1084 2.51113 23.1065 2.51739 23.1047L2.53973 23.0982L25.111 23.0509C25.3817 22.9666 25.8482 22.4412 25.8482 22.2123V14.1373C25.7991 14.1882 25.7383 14.2392 25.6534 14.2652C25.5757 14.2883 25.4988 14.3004 25.4255 14.3004C25.0645 14.3004 24.8465 14.0316 24.6713 13.8148C24.5882 13.7119 24.5015 13.6063 24.43 13.572C24.43 13.572 24.4229 13.5701 24.4077 13.5701C24.254 13.5701 23.9385 13.724 23.708 13.8361C23.6168 13.8806 23.5337 13.9204 23.4622 13.9519L23.3461 15.1232L23.3228 15.1603C23.1763 15.3966 22.565 15.5162 21.507 15.5162C20.9699 15.5162 20.2604 15.4745 20.0271 15.3586C19.8734 15.2817 19.675 15.1214 19.6187 14.9222L19.6125 14.899L19.5875 13.8713L18.6447 13.521C18.5768 13.5878 18.5106 13.6674 18.4409 13.7508C18.2336 14.0001 17.9995 14.2828 17.6331 14.2828C17.5822 14.2828 17.5285 14.2772 17.4758 14.2652C17.1577 14.1957 15.3436 12.2923 15.2623 12.0319C15.0997 11.5111 15.433 11.2108 15.7002 10.969C15.8012 10.8772 15.8986 10.7901 15.9718 10.6947L15.6171 9.74856C15.5929 9.74856 15.567 9.74856 15.5402 9.74856C15.4553 9.74856 15.3713 9.75134 15.29 9.75412C15.2087 9.7569 15.13 9.75968 15.055 9.75968C14.6019 9.75968 14.1676 9.65404 14.0631 8.88398C14.0193 8.56057 13.9737 6.41811 14.2212 6.03447C14.3776 5.79261 14.6761 5.76018 14.9486 5.76018C15.013 5.76018 15.0782 5.76203 15.1426 5.76388C15.2024 5.76574 15.2623 5.76759 15.3195 5.76759C15.3812 5.76759 15.4625 5.76574 15.5304 5.75369L15.7627 5.11336H2.29934C2.1367 5.12819 1.58802 5.57021 1.53797 5.72589V16.6068H5.69513C6.03024 16.6068 6.2742 16.9377 6.2742 17.3927C6.2742 17.8477 6.03113 18.1785 5.69513 18.1785H1.53887V19.3859H22.1388C22.3497 19.3859 22.775 19.814 22.8081 20.0596C22.8367 20.2718 22.7366 20.5767 22.5758 20.7685C22.4712 20.8927 22.3515 20.9585 22.2281 20.9585H1.53887V22.4893V22.4903ZM21.9797 13.9204C21.8671 12.8019 22.4301 12.6222 23.0762 12.4164C23.254 12.3599 23.439 12.3006 23.6338 12.2181C23.7098 12.1857 23.7982 12.1236 23.8912 12.0569C24.0592 11.9383 24.2495 11.803 24.4577 11.79C24.4702 11.79 24.4828 11.7891 24.4953 11.7891C24.8465 11.7891 25.1011 12.0764 25.3263 12.3303C25.363 12.372 25.3996 12.4127 25.4345 12.4498L26.0323 11.7696C25.262 11.0505 25.5006 10.5752 25.7982 9.98301C25.8715 9.83752 25.9465 9.68648 26.0198 9.51319C26.0931 9.3399 26.1431 9.17959 26.1878 9.03873C26.3433 8.54575 26.4666 8.15654 27.287 8.15654C27.3406 8.15654 27.3969 8.1584 27.4559 8.16118V7.26416C27.354 7.2725 27.2619 7.27714 27.1779 7.27714C26.4139 7.27714 26.312 6.89164 26.1932 6.44499C26.1512 6.2856 26.1029 6.1049 26.0198 5.90381C25.9358 5.69902 25.842 5.52666 25.7589 5.37468C25.4434 4.79366 25.2951 4.41743 26.0296 3.74375L25.3808 3.02002C25.3165 3.07654 25.2254 3.18682 25.17 3.25354C25.0529 3.39439 24.9528 3.51578 24.8456 3.56675C24.7473 3.61401 24.6418 3.6381 24.5328 3.6381C24.237 3.6381 23.9689 3.46945 23.7098 3.30728C23.5864 3.23037 23.4703 3.15716 23.3621 3.1099C23.1655 3.02465 22.9859 2.97183 22.8278 2.92457C22.246 2.75314 21.9082 2.60116 21.9851 1.59294H21.12C21.1638 2.55575 20.835 2.717 20.2738 2.90789C20.137 2.95422 19.9833 3.00704 19.8162 3.0821C19.6491 3.15809 19.5035 3.23686 19.3632 3.31192C19.0692 3.47038 18.8163 3.6066 18.5437 3.60752C18.2434 3.60752 17.9602 3.44072 17.6402 3.07006L16.9843 3.69C17.021 3.72614 17.0594 3.7632 17.0996 3.80212C17.3418 4.03287 17.642 4.31921 17.6206 4.70285C17.6081 4.91876 17.4785 5.11614 17.3632 5.29036C17.2998 5.38766 17.239 5.47847 17.2077 5.55816C17.1282 5.76018 17.0719 5.95107 17.0165 6.13548C16.8405 6.72855 16.6742 7.28918 15.8342 7.28918C15.7502 7.28918 15.6618 7.28362 15.5661 7.27343V8.16025C15.651 8.15469 15.7297 8.15191 15.8021 8.15191C16.626 8.15191 16.7368 8.53741 16.8762 9.02576C16.9209 9.18237 16.9718 9.36029 17.0531 9.55582C17.1398 9.76617 17.2328 9.94131 17.3141 10.0951C17.634 10.7003 17.7707 11.0644 16.9942 11.7548L17.6554 12.4405C18.0191 12.005 18.2667 11.8382 18.5357 11.8382C18.7403 11.8382 18.9244 11.9374 19.1567 12.0634C19.2979 12.1394 19.4579 12.2265 19.6572 12.3108C19.8395 12.3877 20.0101 12.4433 20.1612 12.4924C20.8117 12.7028 21.1906 12.8807 21.1236 13.9214H21.9779L21.9797 13.9204Z" fill="black"/>
<path d="M7.79511 18.1748C7.38761 18.1748 7.05608 17.831 7.05608 17.4084C7.05608 16.9859 7.38761 16.6421 7.79511 16.6421C8.2026 16.6421 8.53414 16.9859 8.53414 17.4084C8.53414 17.831 8.2026 18.1748 7.79511 18.1748Z" fill="black"/>
<path d="M24.312 20.9511C23.9063 20.9511 23.5766 20.6091 23.5766 20.1884C23.5766 19.7677 23.9063 19.4258 24.312 19.4258C24.7177 19.4258 25.0475 19.7677 25.0475 20.1884C25.0475 20.6091 24.7177 20.9511 24.312 20.9511Z" fill="black"/>
<path d="M13.6502 22.6905C13.2453 22.6905 12.9165 22.3495 12.9165 21.9297C12.9165 21.51 13.2453 21.1689 13.6502 21.1689C14.055 21.1689 14.3838 21.51 14.3838 21.9297C14.3838 22.3495 14.055 22.6905 13.6502 22.6905Z" fill="black"/>
<path d="M21.5337 11.5074C19.5267 11.5074 17.894 9.81436 17.894 7.73306C17.894 5.65177 19.5267 3.95874 21.5337 3.95874C23.5408 3.95874 25.1735 5.65177 25.1735 7.73306C25.1735 9.81436 23.5408 11.5074 21.5337 11.5074ZM21.5364 5.48682C20.3434 5.48682 19.3721 6.49318 19.3721 7.73121C19.3721 8.96924 20.3425 9.97561 21.5364 9.97561C22.7303 9.97561 23.7008 8.96924 23.7008 7.73121C23.7008 6.49318 22.7294 5.48682 21.5364 5.48682Z" fill="black"/>
<path d="M9.37147 16.4503C8.95415 16.4503 8.44478 16.4355 8.26784 16.3956C7.73166 16.2733 7.72273 15.8628 7.71558 15.5635C7.70843 15.2595 7.70396 15.0408 7.34651 14.9018C7.33221 14.8963 7.31881 14.8935 7.30451 14.8935C7.23481 14.8935 7.13829 14.9528 7.03642 15.0167C6.88272 15.1122 6.69148 15.2308 6.45288 15.2308C6.34028 15.2308 6.22679 15.2039 6.11509 15.1511C6.06773 15.1289 5.92385 15.0603 5.3421 14.0169C5.07848 13.5452 4.76571 12.9429 4.76839 12.7557C4.77376 12.3924 5.0338 12.2219 5.24202 12.0857C5.50564 11.9133 5.68168 11.7975 5.57802 11.3768C5.54764 11.3555 5.4824 11.3212 5.43325 11.2952C5.17589 11.1609 4.6969 10.9116 4.77465 10.3473C4.80146 10.1554 5.87113 8.2048 6.13207 8.07507C6.23305 8.02503 6.33671 8.00001 6.44126 8.00001C6.66735 8.00001 6.85055 8.11399 7.01319 8.21407C7.12668 8.28449 7.23391 8.35121 7.31791 8.35121C7.32685 8.35121 7.33489 8.35121 7.34383 8.34936C7.70664 8.28635 7.72273 8.06395 7.72005 7.67752C7.71826 7.42454 7.71647 7.1382 7.93898 6.99179C8.10788 6.88059 8.76916 6.85742 9.29462 6.85742C9.74143 6.85742 10.5198 6.87503 10.7065 6.99086C11.0327 7.19195 11.0193 7.55428 11.0095 7.81838C11.0041 7.97591 10.9979 8.12511 11.0551 8.19183C11.1703 8.32712 11.2651 8.34287 11.3267 8.34287C11.4599 8.34287 11.6118 8.25855 11.7592 8.17793C11.9165 8.09082 12.0792 8.00186 12.2454 8.00186C12.2686 8.00186 12.2918 8.00371 12.3151 8.00742C12.8218 8.08711 13.8611 10.0285 13.878 10.4399C13.8959 10.8903 13.584 11.0923 13.357 11.2396C13.0764 11.4213 12.9567 11.5158 13.0711 11.8522C13.0952 11.8948 13.2587 11.9736 13.3472 12.0153C13.4947 12.0857 13.6341 12.1515 13.7154 12.2543C13.912 12.5036 13.9004 12.8771 13.8235 13.143C13.7931 13.2487 12.8218 14.9778 12.6654 15.0835C12.5269 15.1771 12.3839 15.2252 12.2391 15.2252C12.0014 15.2252 11.8084 15.1001 11.6538 14.9991C11.576 14.9491 11.4903 14.8926 11.4349 14.8815C11.35 14.9139 11.0962 15.0269 10.9925 15.0807C10.9854 15.1391 10.9925 15.254 10.9979 15.3346C11.0202 15.6775 11.0577 16.252 10.4537 16.3966C10.2401 16.4475 9.57254 16.4522 9.37236 16.4522L9.37147 16.4503ZM7.32417 13.1995C7.58511 13.1995 7.76741 13.3423 7.9792 13.5072C8.07303 13.5804 8.17937 13.6638 8.30805 13.7472C8.42154 13.8213 8.52967 13.8695 8.62529 13.9131C8.97291 14.0697 9.19364 14.2059 9.15342 14.8481H9.55198C9.48585 14.1299 10.0202 13.8677 10.4965 13.6342C10.7262 13.5211 10.9639 13.4053 11.1382 13.2412L11.2132 13.1708L11.9764 13.4145L12.1176 13.0244C11.5072 12.7992 11.568 12.3591 11.6172 11.9995C11.6323 11.8855 11.6493 11.7669 11.6475 11.6511C11.6458 11.4852 11.6252 11.3462 11.6064 11.223C11.543 10.7948 11.5349 10.5215 12.0988 10.1805L11.9076 9.85242C11.7503 9.9664 11.5841 10.0248 11.4107 10.0248C11.0774 10.0248 10.7754 9.81628 10.4831 9.61426C10.2687 9.46692 10.0479 9.31402 9.8299 9.25564L9.72624 9.22784L9.53679 8.39013L9.157 8.36882C9.20526 9.04807 8.94878 9.20282 8.54486 9.38538C8.44388 9.43078 8.3295 9.48268 8.20975 9.5531C8.08733 9.62538 7.98545 9.70137 7.8952 9.76809C7.70039 9.91265 7.53238 10.0378 7.292 10.0378C7.12132 10.0378 6.93455 9.97196 6.7022 9.8274L6.51901 10.1832C6.72901 10.2852 7.09004 10.5066 7.124 10.9848C7.13919 11.2035 7.10166 12.3711 7.03195 12.5935C6.94974 12.852 6.76565 12.9484 6.61731 13.0253C6.58335 13.0429 6.55207 13.0596 6.52258 13.0763L6.73974 13.3923C6.97297 13.2607 7.15706 13.2014 7.32506 13.2014L7.32417 13.1995Z" fill="black"/>
<path d="M9.34019 12.385C8.93359 12.385 8.60295 12.0421 8.60295 11.6205C8.60295 11.1988 8.93359 10.856 9.34019 10.856C9.74679 10.856 10.0774 11.1988 10.0774 11.6205C10.0774 12.0421 9.74679 12.385 9.34019 12.385Z" fill="black"/>
</g>
<defs>
<clipPath id="clip0_511_211">
<rect width="29" height="30" fill="white"/>
</clipPath>
</defs>
</svg>
